<svg width="208" height="94" viewBox="0 0 208 94" fill="none" xmlns="http://www.w3.org/2000/svg">
<mask id="path-1-outside-1_689_1047" maskUnits="userSpaceOnUse" x="-0.967285" y="-0.967407" width="209" height="95" fill="black">
<rect fill="white" x="-0.967285" y="-0.967407" width="209" height="95"/>
<path d="M21.5455 58.5326V16.8128H34.2735V58.5326H21.5455ZM6.83747 17.8735V6.98395H49.335V17.8735H6.83747Z"/>
<path d="M54.9621 58.5326V6.98395H82.1153C84.1895 6.98395 86.0987 7.17251 87.843 7.54964C89.6343 7.92677 91.2371 8.49246 92.6513 9.24672C94.0656 10.001 95.2677 10.9674 96.2576 12.1459C97.2476 13.2773 98.0018 14.6208 98.5204 16.1764C99.0861 17.6849 99.3689 19.4056 99.3689 21.3384C99.3689 24.4968 98.4968 27.1839 96.7526 29.3995C95.0555 31.568 92.7456 33.0293 89.8229 33.7836V34.2786C91.8499 34.6086 93.4763 35.1978 94.702 36.0464C95.9276 36.8949 96.8233 38.0027 97.389 39.3698C98.0018 40.6897 98.3083 42.3161 98.3083 44.2489V52.5221C98.3083 53.4649 98.3318 54.4549 98.379 55.492C98.4732 56.482 98.7561 57.4955 99.2275 58.5326H86.4287C86.1459 57.9198 85.9337 57.0948 85.7923 56.0577C85.6509 55.0206 85.5802 53.8421 85.5802 52.5221V46.4409C85.5802 45.121 85.3681 44.0132 84.9438 43.1175C84.5667 42.2218 83.8595 41.5147 82.8224 40.9962C81.7853 40.4776 80.3004 40.2183 78.3676 40.2183H66.5588V30.248H79.004C81.6911 30.248 83.5767 29.6116 84.6609 28.3388C85.7923 27.066 86.358 25.5103 86.358 23.6719C86.358 22.4933 86.1694 21.5269 85.7923 20.7727C85.4623 19.9713 84.9674 19.3349 84.3074 18.8635C83.6474 18.3449 82.8696 17.9678 81.9739 17.7321C81.0782 17.4964 80.0883 17.3785 79.004 17.3785H67.6195V58.5326H54.9621Z"/>
<path d="M125.559 59.2397C120.797 59.2397 116.743 58.3912 113.396 56.6941C110.096 54.9499 107.574 52.5457 105.83 49.4815C104.086 46.4174 103.214 42.8111 103.214 38.6627V6.98395H115.871V38.7334C115.871 40.7605 116.248 42.4575 117.003 43.8246C117.804 45.1917 118.935 46.2288 120.397 46.9359C121.858 47.643 123.626 47.9966 125.7 47.9966C127.821 47.9966 129.613 47.643 131.074 46.9359C132.536 46.1817 133.62 45.121 134.327 43.7539C135.081 42.3868 135.458 40.7133 135.458 38.7334V6.98395H148.045V38.6627C148.045 42.9996 147.126 46.7002 145.287 49.7644C143.449 52.8285 140.832 55.1856 137.438 56.8355C134.091 58.4383 130.131 59.2397 125.559 59.2397Z"/>
<path d="M152.939 58.5326V6.98395H191.123V17.8028H162.98L165.596 15.1158V50.4008L162.98 47.7137H191.335V58.5326H152.939ZM162.98 37.4606V27.3488H187.588V37.4606H162.98Z"/>
<path d="M49.9175 73.9359C50.7142 73.9359 51.4718 74.0139 52.1899 74.1693C52.9193 74.3246 53.5591 74.5348 54.1089 74.8011C54.6587 75.0674 55.096 75.3732 55.4214 75.7171C55.7466 76.0609 55.9096 76.4211 55.9097 76.7982C55.9097 77.0978 55.7864 77.4145 55.5396 77.7474C55.3039 78.0691 54.9835 78.3905 54.5796 78.7122C54.187 79.0228 53.7386 79.3223 53.2339 79.6107C52.7402 79.8881 52.229 80.1378 51.7017 80.3597C51.1855 80.5705 50.6807 80.7432 50.187 80.8763C49.6935 80.9983 49.2559 81.0589 48.8745 81.0589C48.7399 81.0589 48.6381 81.0039 48.5708 80.8929C48.5147 80.782 48.4707 80.5542 48.437 80.2103C48.3697 79.7443 48.3022 79.2228 48.2349 78.6458C48.1788 78.0579 48.122 77.4977 48.0659 76.9652C48.0098 76.4326 47.9658 75.9662 47.9321 75.5667C47.8985 75.1563 47.8813 74.8955 47.8813 74.7845C47.8814 74.6182 47.9092 74.4849 47.9653 74.3851C48.0327 74.2742 48.1452 74.185 48.3022 74.1185C48.4592 74.0521 48.6666 74.0079 48.9243 73.9857C49.1936 73.9524 49.5249 73.9359 49.9175 73.9359Z"/>
<path d="M80.0571 75.8011C80.1581 75.8011 80.2535 75.8342 80.3433 75.9007C80.4329 75.9672 80.534 76.0501 80.646 76.1497C81.1509 76.7489 81.6396 77.354 82.1108 77.9642C82.5933 78.5633 83.0703 79.174 83.5415 79.7953C83.676 79.9948 83.7427 80.1667 83.7427 80.3109C83.7427 80.4661 83.676 80.5939 83.5415 80.6937C83.4181 80.7825 83.2435 80.8375 83.019 80.8597C82.3459 80.893 81.6727 80.938 80.9995 80.9935C80.3264 81.0379 79.6531 81.104 78.98 81.1927H78.811C78.3738 81.1926 78.1549 80.9877 78.1548 80.5775V80.4271C78.1548 80.3828 78.1666 80.333 78.189 80.2777C78.4021 79.612 78.6091 78.9628 78.811 78.3304C79.0242 77.6869 79.2438 77.0378 79.4683 76.3831C79.5805 75.9949 79.7766 75.8011 80.0571 75.8011Z"/>
<path fill-rule="evenodd" clip-rule="evenodd" d="M199.033 93.0326H100.033C100.036 93.0232 100.853 90.6318 101.279 88.9818C101.705 87.3287 102.121 85.6979 102.525 84.0892C102.929 82.4694 103.321 80.8937 103.703 79.3626C104.095 77.8204 104.482 76.355 104.864 74.9681C104.931 74.7685 104.965 74.5856 104.965 74.4193C104.965 73.9089 104.69 73.504 104.14 73.2044L103.551 72.888C103.417 72.7993 103.282 72.7387 103.147 72.7054C103.024 72.6722 102.906 72.6546 102.793 72.6546C102.278 72.6548 101.935 72.9826 101.767 73.6371L100.286 79.4789C100.218 79.878 100.034 80.0773 99.731 80.0775C99.5739 80.0775 99.3884 79.9782 99.1753 79.7787C97.8176 78.303 96.4094 76.9432 94.9507 75.7005C93.5033 74.4468 91.9941 73.2375 90.4233 72.0726C90.2662 71.9506 90.1141 71.867 89.9683 71.8226C89.8113 71.7672 89.6653 71.7396 89.5308 71.7396C89.1381 71.7396 88.7961 71.9178 88.5044 72.2728L88.0161 72.8216C87.8703 72.9769 87.7695 73.1322 87.7134 73.2874C87.6573 73.4316 87.6294 73.5814 87.6294 73.7367C87.6294 74.1361 87.8255 74.4804 88.2183 74.7689C90.0921 76.1558 91.8873 77.6092 93.604 79.1292C95.3319 80.6492 96.9868 82.2745 98.5688 84.0052C98.6698 84.1272 98.7491 84.2494 98.8052 84.3714C98.8724 84.4934 98.9057 84.6212 98.9058 84.7542C98.9058 84.8208 98.9004 84.8824 98.8892 84.9378C98.878 84.9932 98.8608 85.0596 98.8384 85.1371C98.513 86.4462 98.1764 87.7501 97.8286 89.0482C97.4814 90.3439 97.0344 93.0223 97.0327 93.0326H0.0327148V69.0326H199.033V93.0326ZM50.7427 70.9066C49.0035 70.9066 47.4206 71.0562 45.9956 71.3558C44.5707 71.6554 43.353 72.0778 42.3433 72.6214C41.3336 73.154 40.5541 73.8032 40.0044 74.5687C39.4434 75.3231 39.1626 76.1661 39.1626 77.098C39.1626 77.7636 39.3138 78.2742 39.6167 78.6292C39.9197 78.9732 40.285 79.1449 40.7114 79.1449C41.3168 79.1448 41.7654 79.051 42.0571 78.8626C42.3488 78.674 42.546 78.4408 42.647 78.1634C42.7591 77.8862 42.8095 77.5866 42.7983 77.265C42.7983 76.9321 42.8037 76.6264 42.8149 76.349C42.8374 76.0717 42.8995 75.8383 43.0005 75.6497C43.1128 75.4614 43.337 75.3675 43.6733 75.3675C44.0324 75.3675 44.2907 75.5668 44.4478 75.9662C44.6048 76.3656 44.7281 76.9927 44.8179 77.847C44.874 78.4461 44.9297 79.1174 44.9858 79.8607C45.0532 80.593 45.1207 81.3532 45.188 82.141C45.2553 82.9287 45.3174 83.722 45.3735 84.5208C45.4296 85.3197 45.48 86.0744 45.5249 86.7845C45.5698 87.4945 45.603 88.1438 45.6255 88.7318C45.6591 89.3195 45.6763 89.7964 45.6763 90.1624C45.6763 90.5173 45.8277 90.7837 46.1304 90.9613C46.4333 91.1499 46.8545 91.2445 47.3931 91.2445C47.9653 91.2445 48.3972 91.1113 48.689 90.8451C48.9806 90.5788 49.1264 90.1352 49.1265 89.514C49.1265 89.1701 49.104 88.7761 49.0591 88.3324C49.0254 87.8886 48.9868 87.4386 48.9419 86.9837C48.9082 86.5289 48.8686 86.0963 48.8237 85.6859C48.7901 85.2643 48.7729 84.9144 48.7729 84.6371C48.7731 84.2267 48.9702 83.9888 49.3628 83.9222C50.7653 83.6448 52.0783 83.2619 53.3013 82.7738C54.5242 82.2745 55.5843 81.6914 56.4819 81.0257C57.3907 80.3601 58.1035 79.6282 58.6196 78.8294C59.1358 78.0306 59.394 77.1923 59.394 76.3158C59.394 75.5391 59.1744 74.8239 58.7368 74.1693C58.2992 73.5036 57.6937 72.9315 56.9194 72.4544C56.1565 71.9663 55.2476 71.5889 54.1929 71.3226C53.1382 71.0452 51.9881 70.9066 50.7427 70.9066ZM139.08 72.139C137.834 72.139 136.6 72.2832 135.377 72.5716C134.154 72.8601 132.953 73.2375 131.775 73.7035C131.18 73.9586 130.883 74.3472 130.883 74.8685C130.883 74.9573 130.889 75.0574 130.9 75.1683C130.922 75.2792 130.962 75.4179 131.018 75.5843C131.22 76.2166 131.59 76.5324 132.128 76.5326C132.342 76.5326 132.561 76.4885 132.786 76.3997C133.189 76.2334 133.615 76.0726 134.064 75.9173C134.513 75.762 134.967 75.6233 135.427 75.5013C135.887 75.3793 136.348 75.2847 136.808 75.2181C137.279 75.1405 137.728 75.1019 138.155 75.1019C138.592 75.1019 138.952 75.135 139.232 75.2015C139.523 75.2681 139.753 75.3627 139.921 75.4847C140.09 75.6068 140.202 75.7509 140.258 75.9173C140.326 76.0837 140.359 76.2666 140.359 76.4662C140.359 76.7879 140.225 77.1322 139.956 77.4984C139.686 77.8645 139.333 78.2364 138.895 78.6136C138.469 78.9908 137.98 79.3682 137.43 79.7455C136.892 80.1226 136.342 80.4827 135.781 80.8265C135.231 81.1593 134.698 81.4652 134.182 81.7425C133.677 82.0198 133.245 82.2522 132.886 82.4408C132.763 82.4962 132.656 82.5413 132.566 82.5746C132.476 82.5967 132.398 82.6078 132.331 82.6078C132.095 82.6077 131.932 82.413 131.842 82.0247C131.674 81.2371 131.483 80.4381 131.27 79.6283C131.068 78.8184 130.849 77.9809 130.614 77.1156C130.434 76.4388 130.042 76.1 129.436 76.0999C129.391 76.0999 129.341 76.1055 129.285 76.1165C129.24 76.1276 129.167 76.1498 129.066 76.183C128.976 76.2051 128.852 76.2392 128.695 76.2835C128.549 76.3279 128.358 76.3886 128.123 76.4662C127.483 76.677 127.164 77.0766 127.164 77.6644V77.8978C127.175 77.9754 127.197 78.0701 127.231 78.181C127.77 80.1337 128.246 82.0923 128.662 84.056C129.088 86.0197 129.435 88.0114 129.705 90.0306C129.806 90.785 130.166 91.1624 130.783 91.1624C130.884 91.1624 130.979 91.1514 131.069 91.1292C131.159 91.1181 131.26 91.0951 131.372 91.0619L132.128 90.8294C132.813 90.5854 133.156 90.1527 133.156 89.5316C133.156 89.3652 133.139 89.1539 133.105 88.8988C133.071 88.6325 133.026 88.3552 132.97 88.0667C132.925 87.7784 132.875 87.5009 132.819 87.2347C132.774 86.9573 132.734 86.7351 132.701 86.5687C132.701 86.5134 132.695 86.4636 132.684 86.4193C132.673 86.3638 132.667 86.3188 132.667 86.2855C132.668 86.1636 132.69 86.0863 132.735 86.0531C132.791 86.0087 132.864 85.9867 132.954 85.9867C133.043 85.9867 133.217 86.0197 133.475 86.0863C134.193 86.3082 134.973 86.5579 135.815 86.8353C136.656 87.1016 137.51 87.3844 138.374 87.6839C139.249 87.9723 140.101 88.2663 140.931 88.5658C141.773 88.8653 142.558 89.1537 143.288 89.431C143.534 89.4976 143.742 89.5316 143.911 89.5316C144.393 89.5316 144.797 89.2928 145.123 88.8158C145.28 88.6271 145.42 88.4215 145.543 88.1996C145.678 87.9666 145.746 87.7388 145.746 87.5169C145.745 87.0512 145.442 86.7075 144.836 86.4857C143.546 86.0308 142.273 85.6204 141.016 85.2542C139.759 84.8881 138.53 84.4942 137.33 84.0726C136.982 83.9395 136.808 83.7558 136.808 83.5228C136.808 83.3232 136.971 83.1293 137.296 82.9408C137.678 82.7411 138.104 82.5077 138.575 82.2415C139.046 81.9642 139.523 81.6592 140.005 81.3265C140.488 80.9937 140.959 80.6272 141.419 80.2279C141.879 79.8286 142.289 79.4069 142.648 78.9632C143.007 78.5194 143.293 78.0529 143.506 77.5648C143.731 77.0766 143.843 76.5661 143.843 76.0335C143.843 75.2791 143.703 74.6519 143.422 74.1527C143.142 73.6535 142.777 73.254 142.329 72.9544C141.88 72.6549 141.369 72.4446 140.796 72.3226C140.235 72.2006 139.663 72.139 139.08 72.139ZM153.588 71.4066C153.084 71.4066 152.551 71.4516 151.99 71.5404C151.44 71.618 150.89 71.7402 150.34 71.9066C149.791 72.073 149.263 72.2778 148.758 72.5218C148.253 72.7659 147.81 73.0432 147.428 73.3539C147.047 73.6645 146.738 74.0143 146.502 74.4027C146.278 74.7799 146.166 75.1904 146.166 75.6341C146.166 76.1001 146.328 76.5666 146.654 77.0326C146.99 77.4874 147.429 77.9419 147.967 78.3968C148.506 78.8406 149.123 79.2906 149.819 79.7455C150.514 80.1891 151.221 80.6328 151.939 81.0765C152.657 81.5203 153.364 81.9693 154.06 82.4242C154.756 82.868 155.373 83.3179 155.912 83.7728C156.45 84.2165 156.882 84.6656 157.208 85.1205C157.544 85.5754 157.712 86.0363 157.712 86.5023C157.712 86.7462 157.65 86.9512 157.527 87.1175C157.404 87.2727 157.247 87.4005 157.056 87.5003C156.865 87.6002 156.652 87.6727 156.417 87.7171C156.181 87.7504 155.95 87.7669 155.726 87.7669C154.997 87.7669 154.284 87.6503 153.588 87.4173C152.893 87.1732 152.275 86.8409 151.737 86.4193C151.198 85.9866 150.761 85.487 150.424 84.9212C150.099 84.3443 149.936 83.7227 149.936 83.057C149.936 82.7131 149.807 82.4357 149.549 82.2249C149.303 82.0031 149.016 81.8424 148.691 81.7425C148.411 81.6539 148.214 81.6033 148.102 81.5921C147.99 81.5699 147.888 81.5589 147.798 81.5589C147.518 81.559 147.288 81.6316 147.109 81.7757C146.929 81.9088 146.789 82.0861 146.688 82.308C146.587 82.5187 146.514 82.7685 146.469 83.057C146.436 83.3343 146.418 83.6117 146.418 83.889C146.418 84.5436 146.536 85.1707 146.772 85.7699C147.019 86.369 147.35 86.9291 147.765 87.4505C148.18 87.9609 148.668 88.4274 149.229 88.849C149.801 89.2595 150.413 89.6083 151.064 89.8968C151.715 90.1964 152.388 90.4241 153.083 90.5794C153.79 90.7458 154.486 90.8294 155.17 90.8294C155.844 90.8294 156.534 90.7238 157.241 90.513C157.948 90.3133 158.593 90.0084 159.176 89.598C159.76 89.1875 160.237 88.6769 160.607 88.0667C160.977 87.4565 161.163 86.7514 161.163 85.9525C161.163 85.2981 161.005 84.6661 160.691 84.056C160.388 83.4458 159.979 82.8682 159.462 82.3246C158.958 81.7699 158.38 81.2482 157.729 80.7601C157.078 80.2609 156.41 79.7953 155.726 79.3626C155.053 78.9188 154.391 78.5075 153.74 78.1302C153.089 77.742 152.506 77.3874 151.99 77.0658C151.485 76.744 151.075 76.4492 150.761 76.183C150.458 75.9168 150.306 75.6788 150.306 75.4681C150.306 75.2573 150.379 75.0846 150.525 74.9515C150.671 74.8074 150.862 74.7027 151.097 74.6361C151.333 74.5584 151.591 74.5079 151.872 74.4857C152.163 74.4524 152.45 74.4359 152.73 74.4359C153.246 74.4359 153.757 74.4909 154.262 74.6019C154.778 74.7017 155.266 74.7523 155.726 74.7523C156.051 74.7523 156.315 74.6742 156.517 74.5189C156.73 74.3525 156.916 74.1082 157.073 73.7865C157.23 73.443 157.325 73.1993 157.359 73.055C157.392 72.8999 157.41 72.772 157.41 72.6722C157.41 72.3616 157.28 72.1228 157.022 71.9564C156.764 71.79 156.439 71.6679 156.046 71.5902C155.665 71.5014 155.249 71.4509 154.8 71.4398C154.363 71.4176 153.959 71.4066 153.588 71.4066ZM125.127 72.9876C124.959 72.9876 124.762 73.0161 124.538 73.0716C123.808 73.2491 122.995 73.4319 122.097 73.6205C121.2 73.809 120.28 73.9973 119.337 74.1859C118.395 74.3634 117.463 74.5306 116.543 74.6859C115.635 74.8412 114.799 74.9799 114.036 75.1019C113.284 75.2239 112.639 75.3176 112.1 75.3841C111.561 75.4507 111.202 75.4847 111.022 75.4847C110.921 75.4846 110.82 75.4626 110.719 75.4183C110.63 75.3739 110.523 75.3234 110.4 75.2679C110.288 75.2013 110.153 75.1463 109.996 75.1019C109.839 75.0575 109.642 75.0355 109.407 75.0355C108.834 75.0355 108.368 75.1181 108.009 75.2845C107.662 75.4398 107.387 75.6401 107.185 75.8841C106.994 76.1171 106.865 76.3724 106.797 76.6497C106.741 76.9159 106.713 77.1549 106.713 77.3656C106.713 77.5983 106.741 77.7924 106.797 77.9476C106.853 78.1029 106.916 78.2471 106.983 78.3802C107.061 78.5023 107.129 78.6134 107.185 78.7132C107.252 78.8131 107.292 78.9187 107.303 79.0296C107.337 79.573 107.358 80.0499 107.37 80.4603C107.392 80.8596 107.404 81.2372 107.404 81.5921C107.404 81.7253 107.364 81.8309 107.286 81.9085C107.218 81.9751 107.123 82.0367 107 82.0921C106.596 82.2696 106.299 82.4911 106.108 82.7572C105.917 83.0233 105.822 83.3009 105.822 83.5892C105.822 84.0219 105.94 84.3717 106.175 84.638C106.411 84.8931 106.685 85.0208 107 85.0208C107.044 85.0208 107.107 85.0153 107.185 85.0042L107.656 84.9378C107.734 84.9267 107.791 84.9212 107.825 84.9212C107.982 84.9213 108.128 85.049 108.262 85.304C108.655 86.1693 109.16 86.9068 109.777 87.5169C110.394 88.1161 111.129 88.6045 111.982 88.9818C112.835 89.359 113.799 89.6308 114.876 89.7972C115.954 89.9747 117.143 90.0638 118.445 90.0638C119.556 90.0638 120.662 89.9747 121.761 89.7972C122.861 89.6308 123.848 89.37 124.723 89.015C125.598 88.671 126.306 88.2331 126.844 87.7005C127.394 87.168 127.668 86.5353 127.668 85.8031C127.668 85.5257 127.613 85.2539 127.5 84.9876C127.4 84.7214 127.247 84.4881 127.045 84.2884C126.855 84.0778 126.625 83.9114 126.356 83.7894C126.087 83.6563 125.789 83.5892 125.463 83.5892C125.205 83.5892 124.947 83.6453 124.689 83.7562C124.442 83.856 124.218 83.9948 124.016 84.1722C123.825 84.3386 123.668 84.5324 123.544 84.7542C123.421 84.965 123.36 85.1818 123.36 85.4037C123.36 85.5589 123.399 85.7032 123.477 85.8363C123.567 85.9694 123.612 86.0971 123.612 86.2191C123.612 86.3522 123.506 86.4688 123.292 86.5687C123.091 86.6575 122.827 86.7355 122.501 86.8021C122.187 86.8576 121.828 86.9016 121.424 86.9349C121.032 86.9682 120.645 86.9957 120.263 87.0179C119.893 87.029 119.55 87.0345 119.236 87.0345H118.512C118.12 87.0345 117.693 87.007 117.233 86.9515C116.773 86.896 116.302 86.8234 115.82 86.7347C115.349 86.6349 114.888 86.5127 114.439 86.3685C114.002 86.2243 113.604 86.0635 113.245 85.8861C112.897 85.7086 112.604 85.5149 112.369 85.304C112.144 85.0932 112.021 84.8655 111.999 84.6214C111.999 84.555 112.027 84.4997 112.083 84.4554C112.15 84.411 112.335 84.3495 112.638 84.2718C112.975 84.1942 113.407 84.0941 113.934 83.972C114.473 83.8389 115.05 83.7057 115.667 83.5726C116.285 83.4284 116.914 83.2842 117.553 83.14C118.193 82.9958 118.788 82.8626 119.337 82.7406C119.887 82.6075 120.364 82.4963 120.768 82.4076C121.172 82.3078 121.441 82.2361 121.576 82.1917C122.081 82.0586 122.429 81.8584 122.62 81.5921C122.821 81.3149 122.922 81.0153 122.922 80.6937C122.922 80.6383 122.916 80.5886 122.905 80.5443C122.894 80.4999 122.888 80.4494 122.888 80.3939C122.832 80.0501 122.72 79.7671 122.552 79.5453C122.395 79.3123 122.159 79.1957 121.845 79.1956C121.632 79.1956 121.261 79.2517 120.734 79.3626C120.207 79.4736 119.595 79.6123 118.9 79.7787C118.204 79.934 117.463 80.1112 116.677 80.3109C115.903 80.4995 115.157 80.6767 114.439 80.8431C113.732 80.9984 113.092 81.1316 112.52 81.2425C111.959 81.3534 111.544 81.4095 111.275 81.4095C111.163 81.4095 111.073 81.359 111.005 81.2591C110.938 81.1482 110.882 81.0093 110.837 80.8431C110.804 80.6768 110.781 80.4939 110.77 80.2943C110.759 80.0946 110.753 79.8999 110.753 79.7113V79.0296C110.753 78.8745 110.792 78.7522 110.871 78.6634C110.949 78.5636 111.067 78.502 111.224 78.4798C112.369 78.3245 113.52 78.1693 114.675 78.014C115.831 77.8587 116.981 77.687 118.125 77.4984C119.27 77.2987 120.403 77.0819 121.525 76.849C122.658 76.6049 123.78 76.3221 124.891 76.0003C125.34 75.8561 125.66 75.6623 125.851 75.4183C126.053 75.1631 126.154 74.8904 126.154 74.6019C126.154 74.4356 126.142 74.2581 126.12 74.0697C126.108 73.8701 126.07 73.6927 126.002 73.5374C125.935 73.3821 125.828 73.2545 125.682 73.1546C125.548 73.0438 125.363 72.9877 125.127 72.9876ZM61.9634 72.6214C61.6941 72.6214 61.4358 72.66 61.189 72.7376C60.9535 72.8042 60.7463 72.9044 60.5669 73.0374C60.3874 73.1706 60.247 73.3258 60.146 73.5033C60.0451 73.6696 59.9947 73.8525 59.9946 74.0521C59.9946 74.3517 60.0387 74.9182 60.1284 75.7503C60.2182 76.5713 60.3253 77.5641 60.4487 78.7289C60.5722 79.8938 60.6954 81.1811 60.8188 82.5902C60.9535 83.9882 61.0606 85.403 61.1392 86.8343C61.1392 87.2115 61.0995 87.5889 61.021 87.9662C60.9425 88.3322 60.9028 88.6316 60.9028 88.8646C60.9028 89.1531 61.0154 89.4138 61.2397 89.6468C61.4641 89.8798 61.7837 89.9964 62.1987 89.9964C62.5802 89.9964 62.9006 89.9579 63.1587 89.8802C63.4167 89.8137 63.7083 89.7521 64.0337 89.6966C64.7406 89.5746 65.6612 89.481 66.7944 89.4144C67.9387 89.3478 69.2008 89.2477 70.5806 89.1146C70.8723 89.0924 71.1144 89.0198 71.3052 88.8978C71.4957 88.7869 71.6471 88.6481 71.7593 88.4818C71.8714 88.3044 71.9497 88.1104 71.9946 87.8997C72.0395 87.6889 72.062 87.4777 72.062 87.2669C72.062 87.1338 72.0449 87.0007 72.0112 86.8675C71.9888 86.7233 71.9276 86.5956 71.8267 86.4847C71.7369 86.3738 71.6019 86.2847 71.4224 86.2181C71.2541 86.1516 71.0298 86.1185 70.7495 86.1185C70.3231 86.1185 69.8795 86.146 69.4194 86.2015C68.9707 86.2459 68.5161 86.2964 68.0562 86.3519C67.5962 86.4074 67.1362 86.4624 66.6763 86.5179C66.2163 86.5623 65.7618 86.5843 65.313 86.5843C65.0886 86.5843 64.9032 86.5182 64.7573 86.3851C64.6227 86.252 64.5552 86.0573 64.5552 85.8021C64.4991 84.0602 64.3983 82.1963 64.2524 80.2103C64.1178 78.2131 63.8938 76.0216 63.5796 73.6361C63.5235 73.2811 63.3713 73.0258 63.1245 72.8705C62.8776 72.7042 62.4905 72.6214 61.9634 72.6214ZM80.1919 71.4066C79.9339 71.4066 79.6701 71.4461 79.4009 71.5238C79.1428 71.5903 78.8953 71.684 78.6597 71.806C78.4354 71.9169 78.2336 72.0447 78.0542 72.1888C77.8748 72.333 77.7343 72.4718 77.6333 72.6048C77.3977 72.9266 77.1844 73.2819 76.9937 73.6703C76.8141 74.0586 76.6512 74.4525 76.5054 74.8519C76.3707 75.2513 76.2421 75.6563 76.1187 76.0667C76.0064 76.4662 75.8939 76.8435 75.7817 77.1986C75.5685 77.831 75.367 78.4691 75.1763 79.1126C74.9855 79.7562 74.7948 80.3943 74.604 81.0267C74.5367 81.2597 74.4295 81.4424 74.2837 81.5755C74.1379 81.6975 73.9362 81.7756 73.6782 81.8089L73.2905 81.8421C72.5277 81.9754 72.1298 82.4418 72.0962 83.2406C72.0738 83.4511 72.062 83.5956 72.062 83.6732V83.8558C72.062 84.1997 72.107 84.466 72.1968 84.6546C72.2977 84.8432 72.4436 84.9378 72.6343 84.9378H72.853C73.1223 84.9378 73.2573 85.1096 73.2573 85.4535C73.2573 85.52 73.2519 85.5926 73.2407 85.6703C73.2295 85.7367 73.2123 85.8141 73.1899 85.9027C73.1226 86.1246 73.0551 86.3523 72.9878 86.5853C72.9317 86.8183 72.8759 87.046 72.8198 87.2679C72.7974 87.3565 72.7803 87.4394 72.769 87.5169C72.7578 87.5946 72.7524 87.6672 72.7524 87.7337C72.7524 88.0555 72.8478 88.3163 73.0386 88.516C73.2405 88.7156 73.5321 88.8323 73.9136 88.8656L74.4351 88.932H74.7046C75.4003 88.932 75.8493 88.5656 76.0513 87.8333L76.8081 85.0872C76.9315 84.6213 77.2349 84.366 77.7173 84.3216C79.0637 84.1885 80.4046 84.0774 81.7397 83.9886C83.0862 83.8888 84.4441 83.8117 85.813 83.7562C86.2394 83.7562 86.5823 83.9334 86.8403 84.2884C87.4014 85.0096 87.9512 85.7368 88.4897 86.4691C89.0394 87.2011 89.5832 87.9444 90.1216 88.6986C90.2787 88.8983 90.4416 89.0544 90.6099 89.1654C90.7893 89.2874 90.9803 89.3479 91.1821 89.348C91.3279 89.348 91.4684 89.3204 91.603 89.265C91.7489 89.2095 91.901 89.1314 92.0581 89.0316L92.6968 88.5824C93.1568 88.2828 93.3872 87.933 93.3872 87.5335C93.3871 87.2674 93.2863 86.9843 93.0845 86.6849L91.2837 84.2552C91.1266 84.0111 91.0474 83.7724 91.0474 83.5394C91.0474 83.473 91.0538 83.4066 91.0649 83.3402C91.0762 83.2736 91.0923 83.1955 91.1147 83.1068L91.4351 82.1751C91.4687 82.0864 91.4858 81.9973 91.4858 81.9085C91.497 81.8201 91.5024 81.7425 91.5024 81.6761C91.5024 81.3544 91.3898 81.1046 91.1655 80.9271C90.9523 80.7385 90.6491 80.6439 90.2563 80.6439H89.2974C89.0731 80.6439 88.8767 80.6052 88.7085 80.5277C88.5514 80.4389 88.3993 80.3113 88.2534 80.1449C87.2772 78.8356 86.4413 77.7201 85.7456 76.7992C85.05 75.8673 84.4389 75.0738 83.9116 74.4193C83.3843 73.7648 82.9073 73.2266 82.481 72.805C82.0546 72.3835 81.6226 72.0225 81.1851 71.723C80.8597 71.5122 80.5284 71.4066 80.1919 71.4066Z"/>
<path fill-rule="evenodd" clip-rule="evenodd" d="M199.033 65.0326H0.0327148V0.0325928H199.033V65.0326ZM2.03271 2.03259V63.0326H197.033V2.03259H2.03271Z"/>
<path d="M204.039 6.03259C203.485 6.03259 202.978 5.89978 202.518 5.63416C202.066 5.36072 201.703 4.99744 201.43 4.54431C201.165 4.09119 201.033 3.58728 201.033 3.03259C201.033 2.48572 201.165 1.98572 201.43 1.53259C201.703 1.07947 202.066 0.716187 202.518 0.442749C202.97 0.169312 203.477 0.0325928 204.039 0.0325928C204.452 0.0325928 204.838 0.110718 205.196 0.266968C205.563 0.423218 205.883 0.641968 206.156 0.923218C206.428 1.19666 206.643 1.51306 206.799 1.87244C206.955 2.23181 207.033 2.61853 207.033 3.03259C207.033 3.58728 206.896 4.09119 206.623 4.54431C206.35 4.99744 205.988 5.36072 205.536 5.63416C205.083 5.89978 204.584 6.03259 204.039 6.03259ZM204.039 5.52869C204.499 5.52869 204.916 5.41931 205.29 5.20056C205.664 4.974 205.961 4.67322 206.179 4.29822C206.405 3.91541 206.518 3.49353 206.518 3.03259C206.518 2.57166 206.405 2.15369 206.179 1.77869C205.961 1.40369 205.664 1.10681 205.29 0.888062C204.916 0.661499 204.499 0.548218 204.039 0.548218C203.571 0.548218 203.15 0.661499 202.775 0.888062C202.401 1.10681 202.101 1.40369 201.875 1.77869C201.656 2.15369 201.547 2.57166 201.547 3.03259C201.547 3.49353 201.656 3.91541 201.875 4.29822C202.101 4.67322 202.401 4.974 202.775 5.20056C203.15 5.41931 203.571 5.52869 204.039 5.52869ZM202.998 4.60291V1.43884H204.167C204.479 1.43884 204.736 1.52869 204.939 1.70837C205.142 1.88025 205.243 2.12244 205.243 2.43494C205.243 2.62244 205.196 2.80212 205.103 2.974C205.009 3.13806 204.857 3.26306 204.647 3.349L205.384 4.60291H204.799L204.132 3.41931H203.512V4.60291H202.998ZM203.512 2.974H204.167C204.339 2.974 204.475 2.92322 204.577 2.82166C204.678 2.72009 204.729 2.58728 204.729 2.42322C204.729 2.26697 204.678 2.14197 204.577 2.04822C204.475 1.95447 204.339 1.90759 204.167 1.90759H203.512V2.974Z"/>
</mask>
<path d="M21.5455 58.5326V16.8128H34.2735V58.5326H21.5455ZM6.83747 17.8735V6.98395H49.335V17.8735H6.83747Z" fill="white"/>
<path d="M54.9621 58.5326V6.98395H82.1153C84.1895 6.98395 86.0987 7.17251 87.843 7.54964C89.6343 7.92677 91.2371 8.49246 92.6513 9.24672C94.0656 10.001 95.2677 10.9674 96.2576 12.1459C97.2476 13.2773 98.0018 14.6208 98.5204 16.1764C99.0861 17.6849 99.3689 19.4056 99.3689 21.3384C99.3689 24.4968 98.4968 27.1839 96.7526 29.3995C95.0555 31.568 92.7456 33.0293 89.8229 33.7836V34.2786C91.8499 34.6086 93.4763 35.1978 94.702 36.0464C95.9276 36.8949 96.8233 38.0027 97.389 39.3698C98.0018 40.6897 98.3083 42.3161 98.3083 44.2489V52.5221C98.3083 53.4649 98.3318 54.4549 98.379 55.492C98.4732 56.482 98.7561 57.4955 99.2275 58.5326H86.4287C86.1459 57.9198 85.9337 57.0948 85.7923 56.0577C85.6509 55.0206 85.5802 53.8421 85.5802 52.5221V46.4409C85.5802 45.121 85.3681 44.0132 84.9438 43.1175C84.5667 42.2218 83.8595 41.5147 82.8224 40.9962C81.7853 40.4776 80.3004 40.2183 78.3676 40.2183H66.5588V30.248H79.004C81.6911 30.248 83.5767 29.6116 84.6609 28.3388C85.7923 27.066 86.358 25.5103 86.358 23.6719C86.358 22.4933 86.1694 21.5269 85.7923 20.7727C85.4623 19.9713 84.9674 19.3349 84.3074 18.8635C83.6474 18.3449 82.8696 17.9678 81.9739 17.7321C81.0782 17.4964 80.0883 17.3785 79.004 17.3785H67.6195V58.5326H54.9621Z" fill="white"/>
<path d="M125.559 59.2397C120.797 59.2397 116.743 58.3912 113.396 56.6941C110.096 54.9499 107.574 52.5457 105.83 49.4815C104.086 46.4174 103.214 42.8111 103.214 38.6627V6.98395H115.871V38.7334C115.871 40.7605 116.248 42.4575 117.003 43.8246C117.804 45.1917 118.935 46.2288 120.397 46.9359C121.858 47.643 123.626 47.9966 125.7 47.9966C127.821 47.9966 129.613 47.643 131.074 46.9359C132.536 46.1817 133.62 45.121 134.327 43.7539C135.081 42.3868 135.458 40.7133 135.458 38.7334V6.98395H148.045V38.6627C148.045 42.9996 147.126 46.7002 145.287 49.7644C143.449 52.8285 140.832 55.1856 137.438 56.8355C134.091 58.4383 130.131 59.2397 125.559 59.2397Z" fill="white"/>
<path d="M152.939 58.5326V6.98395H191.123V17.8028H162.98L165.596 15.1158V50.4008L162.98 47.7137H191.335V58.5326H152.939ZM162.98 37.4606V27.3488H187.588V37.4606H162.98Z" fill="white"/>
<path d="M49.9175 73.9359C50.7142 73.9359 51.4718 74.0139 52.1899 74.1693C52.9193 74.3246 53.5591 74.5348 54.1089 74.8011C54.6587 75.0674 55.096 75.3732 55.4214 75.7171C55.7466 76.0609 55.9096 76.4211 55.9097 76.7982C55.9097 77.0978 55.7864 77.4145 55.5396 77.7474C55.3039 78.0691 54.9835 78.3905 54.5796 78.7122C54.187 79.0228 53.7386 79.3223 53.2339 79.6107C52.7402 79.8881 52.229 80.1378 51.7017 80.3597C51.1855 80.5705 50.6807 80.7432 50.187 80.8763C49.6935 80.9983 49.2559 81.0589 48.8745 81.0589C48.7399 81.0589 48.6381 81.0039 48.5708 80.8929C48.5147 80.782 48.4707 80.5542 48.437 80.2103C48.3697 79.7443 48.3022 79.2228 48.2349 78.6458C48.1788 78.0579 48.122 77.4977 48.0659 76.9652C48.0098 76.4326 47.9658 75.9662 47.9321 75.5667C47.8985 75.1563 47.8813 74.8955 47.8813 74.7845C47.8814 74.6182 47.9092 74.4849 47.9653 74.3851C48.0327 74.2742 48.1452 74.185 48.3022 74.1185C48.4592 74.0521 48.6666 74.0079 48.9243 73.9857C49.1936 73.9524 49.5249 73.9359 49.9175 73.9359Z" fill="white"/>
<path d="M80.0571 75.8011C80.1581 75.8011 80.2535 75.8342 80.3433 75.9007C80.4329 75.9672 80.534 76.0501 80.646 76.1497C81.1509 76.7489 81.6396 77.354 82.1108 77.9642C82.5933 78.5633 83.0703 79.174 83.5415 79.7953C83.676 79.9948 83.7427 80.1667 83.7427 80.3109C83.7427 80.4661 83.676 80.5939 83.5415 80.6937C83.4181 80.7825 83.2435 80.8375 83.019 80.8597C82.3459 80.893 81.6727 80.938 80.9995 80.9935C80.3264 81.0379 79.6531 81.104 78.98 81.1927H78.811C78.3738 81.1926 78.1549 80.9877 78.1548 80.5775V80.4271C78.1548 80.3828 78.1666 80.333 78.189 80.2777C78.4021 79.612 78.6091 78.9628 78.811 78.3304C79.0242 77.6869 79.2438 77.0378 79.4683 76.3831C79.5805 75.9949 79.7766 75.8011 80.0571 75.8011Z" fill="white"/>
<path fill-rule="evenodd" clip-rule="evenodd" d="M199.033 93.0326H100.033C100.036 93.0232 100.853 90.6318 101.279 88.9818C101.705 87.3287 102.121 85.6979 102.525 84.0892C102.929 82.4694 103.321 80.8937 103.703 79.3626C104.095 77.8204 104.482 76.355 104.864 74.9681C104.931 74.7685 104.965 74.5856 104.965 74.4193C104.965 73.9089 104.69 73.504 104.14 73.2044L103.551 72.888C103.417 72.7993 103.282 72.7387 103.147 72.7054C103.024 72.6722 102.906 72.6546 102.793 72.6546C102.278 72.6548 101.935 72.9826 101.767 73.6371L100.286 79.4789C100.218 79.878 100.034 80.0773 99.731 80.0775C99.5739 80.0775 99.3884 79.9782 99.1753 79.7787C97.8176 78.303 96.4094 76.9432 94.9507 75.7005C93.5033 74.4468 91.9941 73.2375 90.4233 72.0726C90.2662 71.9506 90.1141 71.867 89.9683 71.8226C89.8113 71.7672 89.6653 71.7396 89.5308 71.7396C89.1381 71.7396 88.7961 71.9178 88.5044 72.2728L88.0161 72.8216C87.8703 72.9769 87.7695 73.1322 87.7134 73.2874C87.6573 73.4316 87.6294 73.5814 87.6294 73.7367C87.6294 74.1361 87.8255 74.4804 88.2183 74.7689C90.0921 76.1558 91.8873 77.6092 93.604 79.1292C95.3319 80.6492 96.9868 82.2745 98.5688 84.0052C98.6698 84.1272 98.7491 84.2494 98.8052 84.3714C98.8724 84.4934 98.9057 84.6212 98.9058 84.7542C98.9058 84.8208 98.9004 84.8824 98.8892 84.9378C98.878 84.9932 98.8608 85.0596 98.8384 85.1371C98.513 86.4462 98.1764 87.7501 97.8286 89.0482C97.4814 90.3439 97.0344 93.0223 97.0327 93.0326H0.0327148V69.0326H199.033V93.0326ZM50.7427 70.9066C49.0035 70.9066 47.4206 71.0562 45.9956 71.3558C44.5707 71.6554 43.353 72.0778 42.3433 72.6214C41.3336 73.154 40.5541 73.8032 40.0044 74.5687C39.4434 75.3231 39.1626 76.1661 39.1626 77.098C39.1626 77.7636 39.3138 78.2742 39.6167 78.6292C39.9197 78.9732 40.285 79.1449 40.7114 79.1449C41.3168 79.1448 41.7654 79.051 42.0571 78.8626C42.3488 78.674 42.546 78.4408 42.647 78.1634C42.7591 77.8862 42.8095 77.5866 42.7983 77.265C42.7983 76.9321 42.8037 76.6264 42.8149 76.349C42.8374 76.0717 42.8995 75.8383 43.0005 75.6497C43.1128 75.4614 43.337 75.3675 43.6733 75.3675C44.0324 75.3675 44.2907 75.5668 44.4478 75.9662C44.6048 76.3656 44.7281 76.9927 44.8179 77.847C44.874 78.4461 44.9297 79.1174 44.9858 79.8607C45.0532 80.593 45.1207 81.3532 45.188 82.141C45.2553 82.9287 45.3174 83.722 45.3735 84.5208C45.4296 85.3197 45.48 86.0744 45.5249 86.7845C45.5698 87.4945 45.603 88.1438 45.6255 88.7318C45.6591 89.3195 45.6763 89.7964 45.6763 90.1624C45.6763 90.5173 45.8277 90.7837 46.1304 90.9613C46.4333 91.1499 46.8545 91.2445 47.3931 91.2445C47.9653 91.2445 48.3972 91.1113 48.689 90.8451C48.9806 90.5788 49.1264 90.1352 49.1265 89.514C49.1265 89.1701 49.104 88.7761 49.0591 88.3324C49.0254 87.8886 48.9868 87.4386 48.9419 86.9837C48.9082 86.5289 48.8686 86.0963 48.8237 85.6859C48.7901 85.2643 48.7729 84.9144 48.7729 84.6371C48.7731 84.2267 48.9702 83.9888 49.3628 83.9222C50.7653 83.6448 52.0783 83.2619 53.3013 82.7738C54.5242 82.2745 55.5843 81.6914 56.4819 81.0257C57.3907 80.3601 58.1035 79.6282 58.6196 78.8294C59.1358 78.0306 59.394 77.1923 59.394 76.3158C59.394 75.5391 59.1744 74.8239 58.7368 74.1693C58.2992 73.5036 57.6937 72.9315 56.9194 72.4544C56.1565 71.9663 55.2476 71.5889 54.1929 71.3226C53.1382 71.0452 51.9881 70.9066 50.7427 70.9066ZM139.08 72.139C137.834 72.139 136.6 72.2832 135.377 72.5716C134.154 72.8601 132.953 73.2375 131.775 73.7035C131.18 73.9586 130.883 74.3472 130.883 74.8685C130.883 74.9573 130.889 75.0574 130.9 75.1683C130.922 75.2792 130.962 75.4179 131.018 75.5843C131.22 76.2166 131.59 76.5324 132.128 76.5326C132.342 76.5326 132.561 76.4885 132.786 76.3997C133.189 76.2334 133.615 76.0726 134.064 75.9173C134.513 75.762 134.967 75.6233 135.427 75.5013C135.887 75.3793 136.348 75.2847 136.808 75.2181C137.279 75.1405 137.728 75.1019 138.155 75.1019C138.592 75.1019 138.952 75.135 139.232 75.2015C139.523 75.2681 139.753 75.3627 139.921 75.4847C140.09 75.6068 140.202 75.7509 140.258 75.9173C140.326 76.0837 140.359 76.2666 140.359 76.4662C140.359 76.7879 140.225 77.1322 139.956 77.4984C139.686 77.8645 139.333 78.2364 138.895 78.6136C138.469 78.9908 137.98 79.3682 137.43 79.7455C136.892 80.1226 136.342 80.4827 135.781 80.8265C135.231 81.1593 134.698 81.4652 134.182 81.7425C133.677 82.0198 133.245 82.2522 132.886 82.4408C132.763 82.4962 132.656 82.5413 132.566 82.5746C132.476 82.5967 132.398 82.6078 132.331 82.6078C132.095 82.6077 131.932 82.413 131.842 82.0247C131.674 81.2371 131.483 80.4381 131.27 79.6283C131.068 78.8184 130.849 77.9809 130.614 77.1156C130.434 76.4388 130.042 76.1 129.436 76.0999C129.391 76.0999 129.341 76.1055 129.285 76.1165C129.24 76.1276 129.167 76.1498 129.066 76.183C128.976 76.2051 128.852 76.2392 128.695 76.2835C128.549 76.3279 128.358 76.3886 128.123 76.4662C127.483 76.677 127.164 77.0766 127.164 77.6644V77.8978C127.175 77.9754 127.197 78.0701 127.231 78.181C127.77 80.1337 128.246 82.0923 128.662 84.056C129.088 86.0197 129.435 88.0114 129.705 90.0306C129.806 90.785 130.166 91.1624 130.783 91.1624C130.884 91.1624 130.979 91.1514 131.069 91.1292C131.159 91.1181 131.26 91.0951 131.372 91.0619L132.128 90.8294C132.813 90.5854 133.156 90.1527 133.156 89.5316C133.156 89.3652 133.139 89.1539 133.105 88.8988C133.071 88.6325 133.026 88.3552 132.97 88.0667C132.925 87.7784 132.875 87.5009 132.819 87.2347C132.774 86.9573 132.734 86.7351 132.701 86.5687C132.701 86.5134 132.695 86.4636 132.684 86.4193C132.673 86.3638 132.667 86.3188 132.667 86.2855C132.668 86.1636 132.69 86.0863 132.735 86.0531C132.791 86.0087 132.864 85.9867 132.954 85.9867C133.043 85.9867 133.217 86.0197 133.475 86.0863C134.193 86.3082 134.973 86.5579 135.815 86.8353C136.656 87.1016 137.51 87.3844 138.374 87.6839C139.249 87.9723 140.101 88.2663 140.931 88.5658C141.773 88.8653 142.558 89.1537 143.288 89.431C143.534 89.4976 143.742 89.5316 143.911 89.5316C144.393 89.5316 144.797 89.2928 145.123 88.8158C145.28 88.6271 145.42 88.4215 145.543 88.1996C145.678 87.9666 145.746 87.7388 145.746 87.5169C145.745 87.0512 145.442 86.7075 144.836 86.4857C143.546 86.0308 142.273 85.6204 141.016 85.2542C139.759 84.8881 138.53 84.4942 137.33 84.0726C136.982 83.9395 136.808 83.7558 136.808 83.5228C136.808 83.3232 136.971 83.1293 137.296 82.9408C137.678 82.7411 138.104 82.5077 138.575 82.2415C139.046 81.9642 139.523 81.6592 140.005 81.3265C140.488 80.9937 140.959 80.6272 141.419 80.2279C141.879 79.8286 142.289 79.4069 142.648 78.9632C143.007 78.5194 143.293 78.0529 143.506 77.5648C143.731 77.0766 143.843 76.5661 143.843 76.0335C143.843 75.2791 143.703 74.6519 143.422 74.1527C143.142 73.6535 142.777 73.254 142.329 72.9544C141.88 72.6549 141.369 72.4446 140.796 72.3226C140.235 72.2006 139.663 72.139 139.08 72.139ZM153.588 71.4066C153.084 71.4066 152.551 71.4516 151.99 71.5404C151.44 71.618 150.89 71.7402 150.34 71.9066C149.791 72.073 149.263 72.2778 148.758 72.5218C148.253 72.7659 147.81 73.0432 147.428 73.3539C147.047 73.6645 146.738 74.0143 146.502 74.4027C146.278 74.7799 146.166 75.1904 146.166 75.6341C146.166 76.1001 146.328 76.5666 146.654 77.0326C146.99 77.4874 147.429 77.9419 147.967 78.3968C148.506 78.8406 149.123 79.2906 149.819 79.7455C150.514 80.1891 151.221 80.6328 151.939 81.0765C152.657 81.5203 153.364 81.9693 154.06 82.4242C154.756 82.868 155.373 83.3179 155.912 83.7728C156.45 84.2165 156.882 84.6656 157.208 85.1205C157.544 85.5754 157.712 86.0363 157.712 86.5023C157.712 86.7462 157.65 86.9512 157.527 87.1175C157.404 87.2727 157.247 87.4005 157.056 87.5003C156.865 87.6002 156.652 87.6727 156.417 87.7171C156.181 87.7504 155.95 87.7669 155.726 87.7669C154.997 87.7669 154.284 87.6503 153.588 87.4173C152.893 87.1732 152.275 86.8409 151.737 86.4193C151.198 85.9866 150.761 85.487 150.424 84.9212C150.099 84.3443 149.936 83.7227 149.936 83.057C149.936 82.7131 149.807 82.4357 149.549 82.2249C149.303 82.0031 149.016 81.8424 148.691 81.7425C148.411 81.6539 148.214 81.6033 148.102 81.5921C147.99 81.5699 147.888 81.5589 147.798 81.5589C147.518 81.559 147.288 81.6316 147.109 81.7757C146.929 81.9088 146.789 82.0861 146.688 82.308C146.587 82.5187 146.514 82.7685 146.469 83.057C146.436 83.3343 146.418 83.6117 146.418 83.889C146.418 84.5436 146.536 85.1707 146.772 85.7699C147.019 86.369 147.35 86.9291 147.765 87.4505C148.18 87.9609 148.668 88.4274 149.229 88.849C149.801 89.2595 150.413 89.6083 151.064 89.8968C151.715 90.1964 152.388 90.4241 153.083 90.5794C153.79 90.7458 154.486 90.8294 155.17 90.8294C155.844 90.8294 156.534 90.7238 157.241 90.513C157.948 90.3133 158.593 90.0084 159.176 89.598C159.76 89.1875 160.237 88.6769 160.607 88.0667C160.977 87.4565 161.163 86.7514 161.163 85.9525C161.163 85.2981 161.005 84.6661 160.691 84.056C160.388 83.4458 159.979 82.8682 159.462 82.3246C158.958 81.7699 158.38 81.2482 157.729 80.7601C157.078 80.2609 156.41 79.7953 155.726 79.3626C155.053 78.9188 154.391 78.5075 153.74 78.1302C153.089 77.742 152.506 77.3874 151.99 77.0658C151.485 76.744 151.075 76.4492 150.761 76.183C150.458 75.9168 150.306 75.6788 150.306 75.4681C150.306 75.2573 150.379 75.0846 150.525 74.9515C150.671 74.8074 150.862 74.7027 151.097 74.6361C151.333 74.5584 151.591 74.5079 151.872 74.4857C152.163 74.4524 152.45 74.4359 152.73 74.4359C153.246 74.4359 153.757 74.4909 154.262 74.6019C154.778 74.7017 155.266 74.7523 155.726 74.7523C156.051 74.7523 156.315 74.6742 156.517 74.5189C156.73 74.3525 156.916 74.1082 157.073 73.7865C157.23 73.443 157.325 73.1993 157.359 73.055C157.392 72.8999 157.41 72.772 157.41 72.6722C157.41 72.3616 157.28 72.1228 157.022 71.9564C156.764 71.79 156.439 71.6679 156.046 71.5902C155.665 71.5014 155.249 71.4509 154.8 71.4398C154.363 71.4176 153.959 71.4066 153.588 71.4066ZM125.127 72.9876C124.959 72.9876 124.762 73.0161 124.538 73.0716C123.808 73.2491 122.995 73.4319 122.097 73.6205C121.2 73.809 120.28 73.9973 119.337 74.1859C118.395 74.3634 117.463 74.5306 116.543 74.6859C115.635 74.8412 114.799 74.9799 114.036 75.1019C113.284 75.2239 112.639 75.3176 112.1 75.3841C111.561 75.4507 111.202 75.4847 111.022 75.4847C110.921 75.4846 110.82 75.4626 110.719 75.4183C110.63 75.3739 110.523 75.3234 110.4 75.2679C110.288 75.2013 110.153 75.1463 109.996 75.1019C109.839 75.0575 109.642 75.0355 109.407 75.0355C108.834 75.0355 108.368 75.1181 108.009 75.2845C107.662 75.4398 107.387 75.6401 107.185 75.8841C106.994 76.1171 106.865 76.3724 106.797 76.6497C106.741 76.9159 106.713 77.1549 106.713 77.3656C106.713 77.5983 106.741 77.7924 106.797 77.9476C106.853 78.1029 106.916 78.2471 106.983 78.3802C107.061 78.5023 107.129 78.6134 107.185 78.7132C107.252 78.8131 107.292 78.9187 107.303 79.0296C107.337 79.573 107.358 80.0499 107.37 80.4603C107.392 80.8596 107.404 81.2372 107.404 81.5921C107.404 81.7253 107.364 81.8309 107.286 81.9085C107.218 81.9751 107.123 82.0367 107 82.0921C106.596 82.2696 106.299 82.4911 106.108 82.7572C105.917 83.0233 105.822 83.3009 105.822 83.5892C105.822 84.0219 105.94 84.3717 106.175 84.638C106.411 84.8931 106.685 85.0208 107 85.0208C107.044 85.0208 107.107 85.0153 107.185 85.0042L107.656 84.9378C107.734 84.9267 107.791 84.9212 107.825 84.9212C107.982 84.9213 108.128 85.049 108.262 85.304C108.655 86.1693 109.16 86.9068 109.777 87.5169C110.394 88.1161 111.129 88.6045 111.982 88.9818C112.835 89.359 113.799 89.6308 114.876 89.7972C115.954 89.9747 117.143 90.0638 118.445 90.0638C119.556 90.0638 120.662 89.9747 121.761 89.7972C122.861 89.6308 123.848 89.37 124.723 89.015C125.598 88.671 126.306 88.2331 126.844 87.7005C127.394 87.168 127.668 86.5353 127.668 85.8031C127.668 85.5257 127.613 85.2539 127.5 84.9876C127.4 84.7214 127.247 84.4881 127.045 84.2884C126.855 84.0778 126.625 83.9114 126.356 83.7894C126.087 83.6563 125.789 83.5892 125.463 83.5892C125.205 83.5892 124.947 83.6453 124.689 83.7562C124.442 83.856 124.218 83.9948 124.016 84.1722C123.825 84.3386 123.668 84.5324 123.544 84.7542C123.421 84.965 123.36 85.1818 123.36 85.4037C123.36 85.5589 123.399 85.7032 123.477 85.8363C123.567 85.9694 123.612 86.0971 123.612 86.2191C123.612 86.3522 123.506 86.4688 123.292 86.5687C123.091 86.6575 122.827 86.7355 122.501 86.8021C122.187 86.8576 121.828 86.9016 121.424 86.9349C121.032 86.9682 120.645 86.9957 120.263 87.0179C119.893 87.029 119.55 87.0345 119.236 87.0345H118.512C118.12 87.0345 117.693 87.007 117.233 86.9515C116.773 86.896 116.302 86.8234 115.82 86.7347C115.349 86.6349 114.888 86.5127 114.439 86.3685C114.002 86.2243 113.604 86.0635 113.245 85.8861C112.897 85.7086 112.604 85.5149 112.369 85.304C112.144 85.0932 112.021 84.8655 111.999 84.6214C111.999 84.555 112.027 84.4997 112.083 84.4554C112.15 84.411 112.335 84.3495 112.638 84.2718C112.975 84.1942 113.407 84.0941 113.934 83.972C114.473 83.8389 115.05 83.7057 115.667 83.5726C116.285 83.4284 116.914 83.2842 117.553 83.14C118.193 82.9958 118.788 82.8626 119.337 82.7406C119.887 82.6075 120.364 82.4963 120.768 82.4076C121.172 82.3078 121.441 82.2361 121.576 82.1917C122.081 82.0586 122.429 81.8584 122.62 81.5921C122.821 81.3149 122.922 81.0153 122.922 80.6937C122.922 80.6383 122.916 80.5886 122.905 80.5443C122.894 80.4999 122.888 80.4494 122.888 80.3939C122.832 80.0501 122.72 79.7671 122.552 79.5453C122.395 79.3123 122.159 79.1957 121.845 79.1956C121.632 79.1956 121.261 79.2517 120.734 79.3626C120.207 79.4736 119.595 79.6123 118.9 79.7787C118.204 79.934 117.463 80.1112 116.677 80.3109C115.903 80.4995 115.157 80.6767 114.439 80.8431C113.732 80.9984 113.092 81.1316 112.52 81.2425C111.959 81.3534 111.544 81.4095 111.275 81.4095C111.163 81.4095 111.073 81.359 111.005 81.2591C110.938 81.1482 110.882 81.0093 110.837 80.8431C110.804 80.6768 110.781 80.4939 110.77 80.2943C110.759 80.0946 110.753 79.8999 110.753 79.7113V79.0296C110.753 78.8745 110.792 78.7522 110.871 78.6634C110.949 78.5636 111.067 78.502 111.224 78.4798C112.369 78.3245 113.52 78.1693 114.675 78.014C115.831 77.8587 116.981 77.687 118.125 77.4984C119.27 77.2987 120.403 77.0819 121.525 76.849C122.658 76.6049 123.78 76.3221 124.891 76.0003C125.34 75.8561 125.66 75.6623 125.851 75.4183C126.053 75.1631 126.154 74.8904 126.154 74.6019C126.154 74.4356 126.142 74.2581 126.12 74.0697C126.108 73.8701 126.07 73.6927 126.002 73.5374C125.935 73.3821 125.828 73.2545 125.682 73.1546C125.548 73.0438 125.363 72.9877 125.127 72.9876ZM61.9634 72.6214C61.6941 72.6214 61.4358 72.66 61.189 72.7376C60.9535 72.8042 60.7463 72.9044 60.5669 73.0374C60.3874 73.1706 60.247 73.3258 60.146 73.5033C60.0451 73.6696 59.9947 73.8525 59.9946 74.0521C59.9946 74.3517 60.0387 74.9182 60.1284 75.7503C60.2182 76.5713 60.3253 77.5641 60.4487 78.7289C60.5722 79.8938 60.6954 81.1811 60.8188 82.5902C60.9535 83.9882 61.0606 85.403 61.1392 86.8343C61.1392 87.2115 61.0995 87.5889 61.021 87.9662C60.9425 88.3322 60.9028 88.6316 60.9028 88.8646C60.9028 89.1531 61.0154 89.4138 61.2397 89.6468C61.4641 89.8798 61.7837 89.9964 62.1987 89.9964C62.5802 89.9964 62.9006 89.9579 63.1587 89.8802C63.4167 89.8137 63.7083 89.7521 64.0337 89.6966C64.7406 89.5746 65.6612 89.481 66.7944 89.4144C67.9387 89.3478 69.2008 89.2477 70.5806 89.1146C70.8723 89.0924 71.1144 89.0198 71.3052 88.8978C71.4957 88.7869 71.6471 88.6481 71.7593 88.4818C71.8714 88.3044 71.9497 88.1104 71.9946 87.8997C72.0395 87.6889 72.062 87.4777 72.062 87.2669C72.062 87.1338 72.0449 87.0007 72.0112 86.8675C71.9888 86.7233 71.9276 86.5956 71.8267 86.4847C71.7369 86.3738 71.6019 86.2847 71.4224 86.2181C71.2541 86.1516 71.0298 86.1185 70.7495 86.1185C70.3231 86.1185 69.8795 86.146 69.4194 86.2015C68.9707 86.2459 68.5161 86.2964 68.0562 86.3519C67.5962 86.4074 67.1362 86.4624 66.6763 86.5179C66.2163 86.5623 65.7618 86.5843 65.313 86.5843C65.0886 86.5843 64.9032 86.5182 64.7573 86.3851C64.6227 86.252 64.5552 86.0573 64.5552 85.8021C64.4991 84.0602 64.3983 82.1963 64.2524 80.2103C64.1178 78.2131 63.8938 76.0216 63.5796 73.6361C63.5235 73.2811 63.3713 73.0258 63.1245 72.8705C62.8776 72.7042 62.4905 72.6214 61.9634 72.6214ZM80.1919 71.4066C79.9339 71.4066 79.6701 71.4461 79.4009 71.5238C79.1428 71.5903 78.8953 71.684 78.6597 71.806C78.4354 71.9169 78.2336 72.0447 78.0542 72.1888C77.8748 72.333 77.7343 72.4718 77.6333 72.6048C77.3977 72.9266 77.1844 73.2819 76.9937 73.6703C76.8141 74.0586 76.6512 74.4525 76.5054 74.8519C76.3707 75.2513 76.2421 75.6563 76.1187 76.0667C76.0064 76.4662 75.8939 76.8435 75.7817 77.1986C75.5685 77.831 75.367 78.4691 75.1763 79.1126C74.9855 79.7562 74.7948 80.3943 74.604 81.0267C74.5367 81.2597 74.4295 81.4424 74.2837 81.5755C74.1379 81.6975 73.9362 81.7756 73.6782 81.8089L73.2905 81.8421C72.5277 81.9754 72.1298 82.4418 72.0962 83.2406C72.0738 83.4511 72.062 83.5956 72.062 83.6732V83.8558C72.062 84.1997 72.107 84.466 72.1968 84.6546C72.2977 84.8432 72.4436 84.9378 72.6343 84.9378H72.853C73.1223 84.9378 73.2573 85.1096 73.2573 85.4535C73.2573 85.52 73.2519 85.5926 73.2407 85.6703C73.2295 85.7367 73.2123 85.8141 73.1899 85.9027C73.1226 86.1246 73.0551 86.3523 72.9878 86.5853C72.9317 86.8183 72.8759 87.046 72.8198 87.2679C72.7974 87.3565 72.7803 87.4394 72.769 87.5169C72.7578 87.5946 72.7524 87.6672 72.7524 87.7337C72.7524 88.0555 72.8478 88.3163 73.0386 88.516C73.2405 88.7156 73.5321 88.8323 73.9136 88.8656L74.4351 88.932H74.7046C75.4003 88.932 75.8493 88.5656 76.0513 87.8333L76.8081 85.0872C76.9315 84.6213 77.2349 84.366 77.7173 84.3216C79.0637 84.1885 80.4046 84.0774 81.7397 83.9886C83.0862 83.8888 84.4441 83.8117 85.813 83.7562C86.2394 83.7562 86.5823 83.9334 86.8403 84.2884C87.4014 85.0096 87.9512 85.7368 88.4897 86.4691C89.0394 87.2011 89.5832 87.9444 90.1216 88.6986C90.2787 88.8983 90.4416 89.0544 90.6099 89.1654C90.7893 89.2874 90.9803 89.3479 91.1821 89.348C91.3279 89.348 91.4684 89.3204 91.603 89.265C91.7489 89.2095 91.901 89.1314 92.0581 89.0316L92.6968 88.5824C93.1568 88.2828 93.3872 87.933 93.3872 87.5335C93.3871 87.2674 93.2863 86.9843 93.0845 86.6849L91.2837 84.2552C91.1266 84.0111 91.0474 83.7724 91.0474 83.5394C91.0474 83.473 91.0538 83.4066 91.0649 83.3402C91.0762 83.2736 91.0923 83.1955 91.1147 83.1068L91.4351 82.1751C91.4687 82.0864 91.4858 81.9973 91.4858 81.9085C91.497 81.8201 91.5024 81.7425 91.5024 81.6761C91.5024 81.3544 91.3898 81.1046 91.1655 80.9271C90.9523 80.7385 90.6491 80.6439 90.2563 80.6439H89.2974C89.0731 80.6439 88.8767 80.6052 88.7085 80.5277C88.5514 80.4389 88.3993 80.3113 88.2534 80.1449C87.2772 78.8356 86.4413 77.7201 85.7456 76.7992C85.05 75.8673 84.4389 75.0738 83.9116 74.4193C83.3843 73.7648 82.9073 73.2266 82.481 72.805C82.0546 72.3835 81.6226 72.0225 81.1851 71.723C80.8597 71.5122 80.5284 71.4066 80.1919 71.4066Z" fill="white"/>
<path fill-rule="evenodd" clip-rule="evenodd" d="M199.033 65.0326H0.0327148V0.0325928H199.033V65.0326ZM2.03271 2.03259V63.0326H197.033V2.03259H2.03271Z" fill="white"/>
<path d="M204.039 6.03259C203.485 6.03259 202.978 5.89978 202.518 5.63416C202.066 5.36072 201.703 4.99744 201.43 4.54431C201.165 4.09119 201.033 3.58728 201.033 3.03259C201.033 2.48572 201.165 1.98572 201.43 1.53259C201.703 1.07947 202.066 0.716187 202.518 0.442749C202.97 0.169312 203.477 0.0325928 204.039 0.0325928C204.452 0.0325928 204.838 0.110718 205.196 0.266968C205.563 0.423218 205.883 0.641968 206.156 0.923218C206.428 1.19666 206.643 1.51306 206.799 1.87244C206.955 2.23181 207.033 2.61853 207.033 3.03259C207.033 3.58728 206.896 4.09119 206.623 4.54431C206.35 4.99744 205.988 5.36072 205.536 5.63416C205.083 5.89978 204.584 6.03259 204.039 6.03259ZM204.039 5.52869C204.499 5.52869 204.916 5.41931 205.29 5.20056C205.664 4.974 205.961 4.67322 206.179 4.29822C206.405 3.91541 206.518 3.49353 206.518 3.03259C206.518 2.57166 206.405 2.15369 206.179 1.77869C205.961 1.40369 205.664 1.10681 205.29 0.888062C204.916 0.661499 204.499 0.548218 204.039 0.548218C203.571 0.548218 203.15 0.661499 202.775 0.888062C202.401 1.10681 202.101 1.40369 201.875 1.77869C201.656 2.15369 201.547 2.57166 201.547 3.03259C201.547 3.49353 201.656 3.91541 201.875 4.29822C202.101 4.67322 202.401 4.974 202.775 5.20056C203.15 5.41931 203.571 5.52869 204.039 5.52869ZM202.998 4.60291V1.43884H204.167C204.479 1.43884 204.736 1.52869 204.939 1.70837C205.142 1.88025 205.243 2.12244 205.243 2.43494C205.243 2.62244 205.196 2.80212 205.103 2.974C205.009 3.13806 204.857 3.26306 204.647 3.349L205.384 4.60291H204.799L204.132 3.41931H203.512V4.60291H202.998ZM203.512 2.974H204.167C204.339 2.974 204.475 2.92322 204.577 2.82166C204.678 2.72009 204.729 2.58728 204.729 2.42322C204.729 2.26697 204.678 2.14197 204.577 2.04822C204.475 1.95447 204.339 1.90759 204.167 1.90759H203.512V2.974Z" fill="white"/>
<path d="M21.5455 58.5326V16.8128H34.2735V58.5326H21.5455ZM6.83747 17.8735V6.98395H49.335V17.8735H6.83747Z" stroke="white" stroke-width="0.0652146" mask="url(#path-1-outside-1_689_1047)"/>
<path d="M54.9621 58.5326V6.98395H82.1153C84.1895 6.98395 86.0987 7.17251 87.843 7.54964C89.6343 7.92677 91.2371 8.49246 92.6513 9.24672C94.0656 10.001 95.2677 10.9674 96.2576 12.1459C97.2476 13.2773 98.0018 14.6208 98.5204 16.1764C99.0861 17.6849 99.3689 19.4056 99.3689 21.3384C99.3689 24.4968 98.4968 27.1839 96.7526 29.3995C95.0555 31.568 92.7456 33.0293 89.8229 33.7836V34.2786C91.8499 34.6086 93.4763 35.1978 94.702 36.0464C95.9276 36.8949 96.8233 38.0027 97.389 39.3698C98.0018 40.6897 98.3083 42.3161 98.3083 44.2489V52.5221C98.3083 53.4649 98.3318 54.4549 98.379 55.492C98.4732 56.482 98.7561 57.4955 99.2275 58.5326H86.4287C86.1459 57.9198 85.9337 57.0948 85.7923 56.0577C85.6509 55.0206 85.5802 53.8421 85.5802 52.5221V46.4409C85.5802 45.121 85.3681 44.0132 84.9438 43.1175C84.5667 42.2218 83.8595 41.5147 82.8224 40.9962C81.7853 40.4776 80.3004 40.2183 78.3676 40.2183H66.5588V30.248H79.004C81.6911 30.248 83.5767 29.6116 84.6609 28.3388C85.7923 27.066 86.358 25.5103 86.358 23.6719C86.358 22.4933 86.1694 21.5269 85.7923 20.7727C85.4623 19.9713 84.9674 19.3349 84.3074 18.8635C83.6474 18.3449 82.8696 17.9678 81.9739 17.7321C81.0782 17.4964 80.0883 17.3785 79.004 17.3785H67.6195V58.5326H54.9621Z" stroke="white" stroke-width="0.0652146" mask="url(#path-1-outside-1_689_1047)"/>
<path d="M125.559 59.2397C120.797 59.2397 116.743 58.3912 113.396 56.6941C110.096 54.9499 107.574 52.5457 105.83 49.4815C104.086 46.4174 103.214 42.8111 103.214 38.6627V6.98395H115.871V38.7334C115.871 40.7605 116.248 42.4575 117.003 43.8246C117.804 45.1917 118.935 46.2288 120.397 46.9359C121.858 47.643 123.626 47.9966 125.7 47.9966C127.821 47.9966 129.613 47.643 131.074 46.9359C132.536 46.1817 133.62 45.121 134.327 43.7539C135.081 42.3868 135.458 40.7133 135.458 38.7334V6.98395H148.045V38.6627C148.045 42.9996 147.126 46.7002 145.287 49.7644C143.449 52.8285 140.832 55.1856 137.438 56.8355C134.091 58.4383 130.131 59.2397 125.559 59.2397Z" stroke="white" stroke-width="0.0652146" mask="url(#path-1-outside-1_689_1047)"/>
<path d="M152.939 58.5326V6.98395H191.123V17.8028H162.98L165.596 15.1158V50.4008L162.98 47.7137H191.335V58.5326H152.939ZM162.98 37.4606V27.3488H187.588V37.4606H162.98Z" stroke="white" stroke-width="0.0652146" mask="url(#path-1-outside-1_689_1047)"/>
<path d="M49.9175 73.9359C50.7142 73.9359 51.4718 74.0139 52.1899 74.1693C52.9193 74.3246 53.5591 74.5348 54.1089 74.8011C54.6587 75.0674 55.096 75.3732 55.4214 75.7171C55.7466 76.0609 55.9096 76.4211 55.9097 76.7982C55.9097 77.0978 55.7864 77.4145 55.5396 77.7474C55.3039 78.0691 54.9835 78.3905 54.5796 78.7122C54.187 79.0228 53.7386 79.3223 53.2339 79.6107C52.7402 79.8881 52.229 80.1378 51.7017 80.3597C51.1855 80.5705 50.6807 80.7432 50.187 80.8763C49.6935 80.9983 49.2559 81.0589 48.8745 81.0589C48.7399 81.0589 48.6381 81.0039 48.5708 80.8929C48.5147 80.782 48.4707 80.5542 48.437 80.2103C48.3697 79.7443 48.3022 79.2228 48.2349 78.6458C48.1788 78.0579 48.122 77.4977 48.0659 76.9652C48.0098 76.4326 47.9658 75.9662 47.9321 75.5667C47.8985 75.1563 47.8813 74.8955 47.8813 74.7845C47.8814 74.6182 47.9092 74.4849 47.9653 74.3851C48.0327 74.2742 48.1452 74.185 48.3022 74.1185C48.4592 74.0521 48.6666 74.0079 48.9243 73.9857C49.1936 73.9524 49.5249 73.9359 49.9175 73.9359Z" stroke="white" stroke-width="0.0652146" mask="url(#path-1-outside-1_689_1047)"/>
<path d="M80.0571 75.8011C80.1581 75.8011 80.2535 75.8342 80.3433 75.9007C80.4329 75.9672 80.534 76.0501 80.646 76.1497C81.1509 76.7489 81.6396 77.354 82.1108 77.9642C82.5933 78.5633 83.0703 79.174 83.5415 79.7953C83.676 79.9948 83.7427 80.1667 83.7427 80.3109C83.7427 80.4661 83.676 80.5939 83.5415 80.6937C83.4181 80.7825 83.2435 80.8375 83.019 80.8597C82.3459 80.893 81.6727 80.938 80.9995 80.9935C80.3264 81.0379 79.6531 81.104 78.98 81.1927H78.811C78.3738 81.1926 78.1549 80.9877 78.1548 80.5775V80.4271C78.1548 80.3828 78.1666 80.333 78.189 80.2777C78.4021 79.612 78.6091 78.9628 78.811 78.3304C79.0242 77.6869 79.2438 77.0378 79.4683 76.3831C79.5805 75.9949 79.7766 75.8011 80.0571 75.8011Z" stroke="white" stroke-width="0.0652146" mask="url(#path-1-outside-1_689_1047)"/>
<path fill-rule="evenodd" clip-rule="evenodd" d="M199.033 93.0326H100.033C100.036 93.0232 100.853 90.6318 101.279 88.9818C101.705 87.3287 102.121 85.6979 102.525 84.0892C102.929 82.4694 103.321 80.8937 103.703 79.3626C104.095 77.8204 104.482 76.355 104.864 74.9681C104.931 74.7685 104.965 74.5856 104.965 74.4193C104.965 73.9089 104.69 73.504 104.14 73.2044L103.551 72.888C103.417 72.7993 103.282 72.7387 103.147 72.7054C103.024 72.6722 102.906 72.6546 102.793 72.6546C102.278 72.6548 101.935 72.9826 101.767 73.6371L100.286 79.4789C100.218 79.878 100.034 80.0773 99.731 80.0775C99.5739 80.0775 99.3884 79.9782 99.1753 79.7787C97.8176 78.303 96.4094 76.9432 94.9507 75.7005C93.5033 74.4468 91.9941 73.2375 90.4233 72.0726C90.2662 71.9506 90.1141 71.867 89.9683 71.8226C89.8113 71.7672 89.6653 71.7396 89.5308 71.7396C89.1381 71.7396 88.7961 71.9178 88.5044 72.2728L88.0161 72.8216C87.8703 72.9769 87.7695 73.1322 87.7134 73.2874C87.6573 73.4316 87.6294 73.5814 87.6294 73.7367C87.6294 74.1361 87.8255 74.4804 88.2183 74.7689C90.0921 76.1558 91.8873 77.6092 93.604 79.1292C95.3319 80.6492 96.9868 82.2745 98.5688 84.0052C98.6698 84.1272 98.7491 84.2494 98.8052 84.3714C98.8724 84.4934 98.9057 84.6212 98.9058 84.7542C98.9058 84.8208 98.9004 84.8824 98.8892 84.9378C98.878 84.9932 98.8608 85.0596 98.8384 85.1371C98.513 86.4462 98.1764 87.7501 97.8286 89.0482C97.4814 90.3439 97.0344 93.0223 97.0327 93.0326H0.0327148V69.0326H199.033V93.0326ZM50.7427 70.9066C49.0035 70.9066 47.4206 71.0562 45.9956 71.3558C44.5707 71.6554 43.353 72.0778 42.3433 72.6214C41.3336 73.154 40.5541 73.8032 40.0044 74.5687C39.4434 75.3231 39.1626 76.1661 39.1626 77.098C39.1626 77.7636 39.3138 78.2742 39.6167 78.6292C39.9197 78.9732 40.285 79.1449 40.7114 79.1449C41.3168 79.1448 41.7654 79.051 42.0571 78.8626C42.3488 78.674 42.546 78.4408 42.647 78.1634C42.7591 77.8862 42.8095 77.5866 42.7983 77.265C42.7983 76.9321 42.8037 76.6264 42.8149 76.349C42.8374 76.0717 42.8995 75.8383 43.0005 75.6497C43.1128 75.4614 43.337 75.3675 43.6733 75.3675C44.0324 75.3675 44.2907 75.5668 44.4478 75.9662C44.6048 76.3656 44.7281 76.9927 44.8179 77.847C44.874 78.4461 44.9297 79.1174 44.9858 79.8607C45.0532 80.593 45.1207 81.3532 45.188 82.141C45.2553 82.9287 45.3174 83.722 45.3735 84.5208C45.4296 85.3197 45.48 86.0744 45.5249 86.7845C45.5698 87.4945 45.603 88.1438 45.6255 88.7318C45.6591 89.3195 45.6763 89.7964 45.6763 90.1624C45.6763 90.5173 45.8277 90.7837 46.1304 90.9613C46.4333 91.1499 46.8545 91.2445 47.3931 91.2445C47.9653 91.2445 48.3972 91.1113 48.689 90.8451C48.9806 90.5788 49.1264 90.1352 49.1265 89.514C49.1265 89.1701 49.104 88.7761 49.0591 88.3324C49.0254 87.8886 48.9868 87.4386 48.9419 86.9837C48.9082 86.5289 48.8686 86.0963 48.8237 85.6859C48.7901 85.2643 48.7729 84.9144 48.7729 84.6371C48.7731 84.2267 48.9702 83.9888 49.3628 83.9222C50.7653 83.6448 52.0783 83.2619 53.3013 82.7738C54.5242 82.2745 55.5843 81.6914 56.4819 81.0257C57.3907 80.3601 58.1035 79.6282 58.6196 78.8294C59.1358 78.0306 59.394 77.1923 59.394 76.3158C59.394 75.5391 59.1744 74.8239 58.7368 74.1693C58.2992 73.5036 57.6937 72.9315 56.9194 72.4544C56.1565 71.9663 55.2476 71.5889 54.1929 71.3226C53.1382 71.0452 51.9881 70.9066 50.7427 70.9066ZM139.08 72.139C137.834 72.139 136.6 72.2832 135.377 72.5716C134.154 72.8601 132.953 73.2375 131.775 73.7035C131.18 73.9586 130.883 74.3472 130.883 74.8685C130.883 74.9573 130.889 75.0574 130.9 75.1683C130.922 75.2792 130.962 75.4179 131.018 75.5843C131.22 76.2166 131.59 76.5324 132.128 76.5326C132.342 76.5326 132.561 76.4885 132.786 76.3997C133.189 76.2334 133.615 76.0726 134.064 75.9173C134.513 75.762 134.967 75.6233 135.427 75.5013C135.887 75.3793 136.348 75.2847 136.808 75.2181C137.279 75.1405 137.728 75.1019 138.155 75.1019C138.592 75.1019 138.952 75.135 139.232 75.2015C139.523 75.2681 139.753 75.3627 139.921 75.4847C140.09 75.6068 140.202 75.7509 140.258 75.9173C140.326 76.0837 140.359 76.2666 140.359 76.4662C140.359 76.7879 140.225 77.1322 139.956 77.4984C139.686 77.8645 139.333 78.2364 138.895 78.6136C138.469 78.9908 137.98 79.3682 137.43 79.7455C136.892 80.1226 136.342 80.4827 135.781 80.8265C135.231 81.1593 134.698 81.4652 134.182 81.7425C133.677 82.0198 133.245 82.2522 132.886 82.4408C132.763 82.4962 132.656 82.5413 132.566 82.5746C132.476 82.5967 132.398 82.6078 132.331 82.6078C132.095 82.6077 131.932 82.413 131.842 82.0247C131.674 81.2371 131.483 80.4381 131.27 79.6283C131.068 78.8184 130.849 77.9809 130.614 77.1156C130.434 76.4388 130.042 76.1 129.436 76.0999C129.391 76.0999 129.341 76.1055 129.285 76.1165C129.24 76.1276 129.167 76.1498 129.066 76.183C128.976 76.2051 128.852 76.2392 128.695 76.2835C128.549 76.3279 128.358 76.3886 128.123 76.4662C127.483 76.677 127.164 77.0766 127.164 77.6644V77.8978C127.175 77.9754 127.197 78.0701 127.231 78.181C127.77 80.1337 128.246 82.0923 128.662 84.056C129.088 86.0197 129.435 88.0114 129.705 90.0306C129.806 90.785 130.166 91.1624 130.783 91.1624C130.884 91.1624 130.979 91.1514 131.069 91.1292C131.159 91.1181 131.26 91.0951 131.372 91.0619L132.128 90.8294C132.813 90.5854 133.156 90.1527 133.156 89.5316C133.156 89.3652 133.139 89.1539 133.105 88.8988C133.071 88.6325 133.026 88.3552 132.97 88.0667C132.925 87.7784 132.875 87.5009 132.819 87.2347C132.774 86.9573 132.734 86.7351 132.701 86.5687C132.701 86.5134 132.695 86.4636 132.684 86.4193C132.673 86.3638 132.667 86.3188 132.667 86.2855C132.668 86.1636 132.69 86.0863 132.735 86.0531C132.791 86.0087 132.864 85.9867 132.954 85.9867C133.043 85.9867 133.217 86.0197 133.475 86.0863C134.193 86.3082 134.973 86.5579 135.815 86.8353C136.656 87.1016 137.51 87.3844 138.374 87.6839C139.249 87.9723 140.101 88.2663 140.931 88.5658C141.773 88.8653 142.558 89.1537 143.288 89.431C143.534 89.4976 143.742 89.5316 143.911 89.5316C144.393 89.5316 144.797 89.2928 145.123 88.8158C145.28 88.6271 145.42 88.4215 145.543 88.1996C145.678 87.9666 145.746 87.7388 145.746 87.5169C145.745 87.0512 145.442 86.7075 144.836 86.4857C143.546 86.0308 142.273 85.6204 141.016 85.2542C139.759 84.8881 138.53 84.4942 137.33 84.0726C136.982 83.9395 136.808 83.7558 136.808 83.5228C136.808 83.3232 136.971 83.1293 137.296 82.9408C137.678 82.7411 138.104 82.5077 138.575 82.2415C139.046 81.9642 139.523 81.6592 140.005 81.3265C140.488 80.9937 140.959 80.6272 141.419 80.2279C141.879 79.8286 142.289 79.4069 142.648 78.9632C143.007 78.5194 143.293 78.0529 143.506 77.5648C143.731 77.0766 143.843 76.5661 143.843 76.0335C143.843 75.2791 143.703 74.6519 143.422 74.1527C143.142 73.6535 142.777 73.254 142.329 72.9544C141.88 72.6549 141.369 72.4446 140.796 72.3226C140.235 72.2006 139.663 72.139 139.08 72.139ZM153.588 71.4066C153.084 71.4066 152.551 71.4516 151.99 71.5404C151.44 71.618 150.89 71.7402 150.34 71.9066C149.791 72.073 149.263 72.2778 148.758 72.5218C148.253 72.7659 147.81 73.0432 147.428 73.3539C147.047 73.6645 146.738 74.0143 146.502 74.4027C146.278 74.7799 146.166 75.1904 146.166 75.6341C146.166 76.1001 146.328 76.5666 146.654 77.0326C146.99 77.4874 147.429 77.9419 147.967 78.3968C148.506 78.8406 149.123 79.2906 149.819 79.7455C150.514 80.1891 151.221 80.6328 151.939 81.0765C152.657 81.5203 153.364 81.9693 154.06 82.4242C154.756 82.868 155.373 83.3179 155.912 83.7728C156.45 84.2165 156.882 84.6656 157.208 85.1205C157.544 85.5754 157.712 86.0363 157.712 86.5023C157.712 86.7462 157.65 86.9512 157.527 87.1175C157.404 87.2727 157.247 87.4005 157.056 87.5003C156.865 87.6002 156.652 87.6727 156.417 87.7171C156.181 87.7504 155.95 87.7669 155.726 87.7669C154.997 87.7669 154.284 87.6503 153.588 87.4173C152.893 87.1732 152.275 86.8409 151.737 86.4193C151.198 85.9866 150.761 85.487 150.424 84.9212C150.099 84.3443 149.936 83.7227 149.936 83.057C149.936 82.7131 149.807 82.4357 149.549 82.2249C149.303 82.0031 149.016 81.8424 148.691 81.7425C148.411 81.6539 148.214 81.6033 148.102 81.5921C147.99 81.5699 147.888 81.5589 147.798 81.5589C147.518 81.559 147.288 81.6316 147.109 81.7757C146.929 81.9088 146.789 82.0861 146.688 82.308C146.587 82.5187 146.514 82.7685 146.469 83.057C146.436 83.3343 146.418 83.6117 146.418 83.889C146.418 84.5436 146.536 85.1707 146.772 85.7699C147.019 86.369 147.35 86.9291 147.765 87.4505C148.18 87.9609 148.668 88.4274 149.229 88.849C149.801 89.2595 150.413 89.6083 151.064 89.8968C151.715 90.1964 152.388 90.4241 153.083 90.5794C153.79 90.7458 154.486 90.8294 155.17 90.8294C155.844 90.8294 156.534 90.7238 157.241 90.513C157.948 90.3133 158.593 90.0084 159.176 89.598C159.76 89.1875 160.237 88.6769 160.607 88.0667C160.977 87.4565 161.163 86.7514 161.163 85.9525C161.163 85.2981 161.005 84.6661 160.691 84.056C160.388 83.4458 159.979 82.8682 159.462 82.3246C158.958 81.7699 158.38 81.2482 157.729 80.7601C157.078 80.2609 156.41 79.7953 155.726 79.3626C155.053 78.9188 154.391 78.5075 153.74 78.1302C153.089 77.742 152.506 77.3874 151.99 77.0658C151.485 76.744 151.075 76.4492 150.761 76.183C150.458 75.9168 150.306 75.6788 150.306 75.4681C150.306 75.2573 150.379 75.0846 150.525 74.9515C150.671 74.8074 150.862 74.7027 151.097 74.6361C151.333 74.5584 151.591 74.5079 151.872 74.4857C152.163 74.4524 152.45 74.4359 152.73 74.4359C153.246 74.4359 153.757 74.4909 154.262 74.6019C154.778 74.7017 155.266 74.7523 155.726 74.7523C156.051 74.7523 156.315 74.6742 156.517 74.5189C156.73 74.3525 156.916 74.1082 157.073 73.7865C157.23 73.443 157.325 73.1993 157.359 73.055C157.392 72.8999 157.41 72.772 157.41 72.6722C157.41 72.3616 157.28 72.1228 157.022 71.9564C156.764 71.79 156.439 71.6679 156.046 71.5902C155.665 71.5014 155.249 71.4509 154.8 71.4398C154.363 71.4176 153.959 71.4066 153.588 71.4066ZM125.127 72.9876C124.959 72.9876 124.762 73.0161 124.538 73.0716C123.808 73.2491 122.995 73.4319 122.097 73.6205C121.2 73.809 120.28 73.9973 119.337 74.1859C118.395 74.3634 117.463 74.5306 116.543 74.6859C115.635 74.8412 114.799 74.9799 114.036 75.1019C113.284 75.2239 112.639 75.3176 112.1 75.3841C111.561 75.4507 111.202 75.4847 111.022 75.4847C110.921 75.4846 110.82 75.4626 110.719 75.4183C110.63 75.3739 110.523 75.3234 110.4 75.2679C110.288 75.2013 110.153 75.1463 109.996 75.1019C109.839 75.0575 109.642 75.0355 109.407 75.0355C108.834 75.0355 108.368 75.1181 108.009 75.2845C107.662 75.4398 107.387 75.6401 107.185 75.8841C106.994 76.1171 106.865 76.3724 106.797 76.6497C106.741 76.9159 106.713 77.1549 106.713 77.3656C106.713 77.5983 106.741 77.7924 106.797 77.9476C106.853 78.1029 106.916 78.2471 106.983 78.3802C107.061 78.5023 107.129 78.6134 107.185 78.7132C107.252 78.8131 107.292 78.9187 107.303 79.0296C107.337 79.573 107.358 80.0499 107.37 80.4603C107.392 80.8596 107.404 81.2372 107.404 81.5921C107.404 81.7253 107.364 81.8309 107.286 81.9085C107.218 81.9751 107.123 82.0367 107 82.0921C106.596 82.2696 106.299 82.4911 106.108 82.7572C105.917 83.0233 105.822 83.3009 105.822 83.5892C105.822 84.0219 105.94 84.3717 106.175 84.638C106.411 84.8931 106.685 85.0208 107 85.0208C107.044 85.0208 107.107 85.0153 107.185 85.0042L107.656 84.9378C107.734 84.9267 107.791 84.9212 107.825 84.9212C107.982 84.9213 108.128 85.049 108.262 85.304C108.655 86.1693 109.16 86.9068 109.777 87.5169C110.394 88.1161 111.129 88.6045 111.982 88.9818C112.835 89.359 113.799 89.6308 114.876 89.7972C115.954 89.9747 117.143 90.0638 118.445 90.0638C119.556 90.0638 120.662 89.9747 121.761 89.7972C122.861 89.6308 123.848 89.37 124.723 89.015C125.598 88.671 126.306 88.2331 126.844 87.7005C127.394 87.168 127.668 86.5353 127.668 85.8031C127.668 85.5257 127.613 85.2539 127.5 84.9876C127.4 84.7214 127.247 84.4881 127.045 84.2884C126.855 84.0778 126.625 83.9114 126.356 83.7894C126.087 83.6563 125.789 83.5892 125.463 83.5892C125.205 83.5892 124.947 83.6453 124.689 83.7562C124.442 83.856 124.218 83.9948 124.016 84.1722C123.825 84.3386 123.668 84.5324 123.544 84.7542C123.421 84.965 123.36 85.1818 123.36 85.4037C123.36 85.5589 123.399 85.7032 123.477 85.8363C123.567 85.9694 123.612 86.0971 123.612 86.2191C123.612 86.3522 123.506 86.4688 123.292 86.5687C123.091 86.6575 122.827 86.7355 122.501 86.8021C122.187 86.8576 121.828 86.9016 121.424 86.9349C121.032 86.9682 120.645 86.9957 120.263 87.0179C119.893 87.029 119.55 87.0345 119.236 87.0345H118.512C118.12 87.0345 117.693 87.007 117.233 86.9515C116.773 86.896 116.302 86.8234 115.82 86.7347C115.349 86.6349 114.888 86.5127 114.439 86.3685C114.002 86.2243 113.604 86.0635 113.245 85.8861C112.897 85.7086 112.604 85.5149 112.369 85.304C112.144 85.0932 112.021 84.8655 111.999 84.6214C111.999 84.555 112.027 84.4997 112.083 84.4554C112.15 84.411 112.335 84.3495 112.638 84.2718C112.975 84.1942 113.407 84.0941 113.934 83.972C114.473 83.8389 115.05 83.7057 115.667 83.5726C116.285 83.4284 116.914 83.2842 117.553 83.14C118.193 82.9958 118.788 82.8626 119.337 82.7406C119.887 82.6075 120.364 82.4963 120.768 82.4076C121.172 82.3078 121.441 82.2361 121.576 82.1917C122.081 82.0586 122.429 81.8584 122.62 81.5921C122.821 81.3149 122.922 81.0153 122.922 80.6937C122.922 80.6383 122.916 80.5886 122.905 80.5443C122.894 80.4999 122.888 80.4494 122.888 80.3939C122.832 80.0501 122.72 79.7671 122.552 79.5453C122.395 79.3123 122.159 79.1957 121.845 79.1956C121.632 79.1956 121.261 79.2517 120.734 79.3626C120.207 79.4736 119.595 79.6123 118.9 79.7787C118.204 79.934 117.463 80.1112 116.677 80.3109C115.903 80.4995 115.157 80.6767 114.439 80.8431C113.732 80.9984 113.092 81.1316 112.52 81.2425C111.959 81.3534 111.544 81.4095 111.275 81.4095C111.163 81.4095 111.073 81.359 111.005 81.2591C110.938 81.1482 110.882 81.0093 110.837 80.8431C110.804 80.6768 110.781 80.4939 110.77 80.2943C110.759 80.0946 110.753 79.8999 110.753 79.7113V79.0296C110.753 78.8745 110.792 78.7522 110.871 78.6634C110.949 78.5636 111.067 78.502 111.224 78.4798C112.369 78.3245 113.52 78.1693 114.675 78.014C115.831 77.8587 116.981 77.687 118.125 77.4984C119.27 77.2987 120.403 77.0819 121.525 76.849C122.658 76.6049 123.78 76.3221 124.891 76.0003C125.34 75.8561 125.66 75.6623 125.851 75.4183C126.053 75.1631 126.154 74.8904 126.154 74.6019C126.154 74.4356 126.142 74.2581 126.12 74.0697C126.108 73.8701 126.07 73.6927 126.002 73.5374C125.935 73.3821 125.828 73.2545 125.682 73.1546C125.548 73.0438 125.363 72.9877 125.127 72.9876ZM61.9634 72.6214C61.6941 72.6214 61.4358 72.66 61.189 72.7376C60.9535 72.8042 60.7463 72.9044 60.5669 73.0374C60.3874 73.1706 60.247 73.3258 60.146 73.5033C60.0451 73.6696 59.9947 73.8525 59.9946 74.0521C59.9946 74.3517 60.0387 74.9182 60.1284 75.7503C60.2182 76.5713 60.3253 77.5641 60.4487 78.7289C60.5722 79.8938 60.6954 81.1811 60.8188 82.5902C60.9535 83.9882 61.0606 85.403 61.1392 86.8343C61.1392 87.2115 61.0995 87.5889 61.021 87.9662C60.9425 88.3322 60.9028 88.6316 60.9028 88.8646C60.9028 89.1531 61.0154 89.4138 61.2397 89.6468C61.4641 89.8798 61.7837 89.9964 62.1987 89.9964C62.5802 89.9964 62.9006 89.9579 63.1587 89.8802C63.4167 89.8137 63.7083 89.7521 64.0337 89.6966C64.7406 89.5746 65.6612 89.481 66.7944 89.4144C67.9387 89.3478 69.2008 89.2477 70.5806 89.1146C70.8723 89.0924 71.1144 89.0198 71.3052 88.8978C71.4957 88.7869 71.6471 88.6481 71.7593 88.4818C71.8714 88.3044 71.9497 88.1104 71.9946 87.8997C72.0395 87.6889 72.062 87.4777 72.062 87.2669C72.062 87.1338 72.0449 87.0007 72.0112 86.8675C71.9888 86.7233 71.9276 86.5956 71.8267 86.4847C71.7369 86.3738 71.6019 86.2847 71.4224 86.2181C71.2541 86.1516 71.0298 86.1185 70.7495 86.1185C70.3231 86.1185 69.8795 86.146 69.4194 86.2015C68.9707 86.2459 68.5161 86.2964 68.0562 86.3519C67.5962 86.4074 67.1362 86.4624 66.6763 86.5179C66.2163 86.5623 65.7618 86.5843 65.313 86.5843C65.0886 86.5843 64.9032 86.5182 64.7573 86.3851C64.6227 86.252 64.5552 86.0573 64.5552 85.8021C64.4991 84.0602 64.3983 82.1963 64.2524 80.2103C64.1178 78.2131 63.8938 76.0216 63.5796 73.6361C63.5235 73.2811 63.3713 73.0258 63.1245 72.8705C62.8776 72.7042 62.4905 72.6214 61.9634 72.6214ZM80.1919 71.4066C79.9339 71.4066 79.6701 71.4461 79.4009 71.5238C79.1428 71.5903 78.8953 71.684 78.6597 71.806C78.4354 71.9169 78.2336 72.0447 78.0542 72.1888C77.8748 72.333 77.7343 72.4718 77.6333 72.6048C77.3977 72.9266 77.1844 73.2819 76.9937 73.6703C76.8141 74.0586 76.6512 74.4525 76.5054 74.8519C76.3707 75.2513 76.2421 75.6563 76.1187 76.0667C76.0064 76.4662 75.8939 76.8435 75.7817 77.1986C75.5685 77.831 75.367 78.4691 75.1763 79.1126C74.9855 79.7562 74.7948 80.3943 74.604 81.0267C74.5367 81.2597 74.4295 81.4424 74.2837 81.5755C74.1379 81.6975 73.9362 81.7756 73.6782 81.8089L73.2905 81.8421C72.5277 81.9754 72.1298 82.4418 72.0962 83.2406C72.0738 83.4511 72.062 83.5956 72.062 83.6732V83.8558C72.062 84.1997 72.107 84.466 72.1968 84.6546C72.2977 84.8432 72.4436 84.9378 72.6343 84.9378H72.853C73.1223 84.9378 73.2573 85.1096 73.2573 85.4535C73.2573 85.52 73.2519 85.5926 73.2407 85.6703C73.2295 85.7367 73.2123 85.8141 73.1899 85.9027C73.1226 86.1246 73.0551 86.3523 72.9878 86.5853C72.9317 86.8183 72.8759 87.046 72.8198 87.2679C72.7974 87.3565 72.7803 87.4394 72.769 87.5169C72.7578 87.5946 72.7524 87.6672 72.7524 87.7337C72.7524 88.0555 72.8478 88.3163 73.0386 88.516C73.2405 88.7156 73.5321 88.8323 73.9136 88.8656L74.4351 88.932H74.7046C75.4003 88.932 75.8493 88.5656 76.0513 87.8333L76.8081 85.0872C76.9315 84.6213 77.2349 84.366 77.7173 84.3216C79.0637 84.1885 80.4046 84.0774 81.7397 83.9886C83.0862 83.8888 84.4441 83.8117 85.813 83.7562C86.2394 83.7562 86.5823 83.9334 86.8403 84.2884C87.4014 85.0096 87.9512 85.7368 88.4897 86.4691C89.0394 87.2011 89.5832 87.9444 90.1216 88.6986C90.2787 88.8983 90.4416 89.0544 90.6099 89.1654C90.7893 89.2874 90.9803 89.3479 91.1821 89.348C91.3279 89.348 91.4684 89.3204 91.603 89.265C91.7489 89.2095 91.901 89.1314 92.0581 89.0316L92.6968 88.5824C93.1568 88.2828 93.3872 87.933 93.3872 87.5335C93.3871 87.2674 93.2863 86.9843 93.0845 86.6849L91.2837 84.2552C91.1266 84.0111 91.0474 83.7724 91.0474 83.5394C91.0474 83.473 91.0538 83.4066 91.0649 83.3402C91.0762 83.2736 91.0923 83.1955 91.1147 83.1068L91.4351 82.1751C91.4687 82.0864 91.4858 81.9973 91.4858 81.9085C91.497 81.8201 91.5024 81.7425 91.5024 81.6761C91.5024 81.3544 91.3898 81.1046 91.1655 80.9271C90.9523 80.7385 90.6491 80.6439 90.2563 80.6439H89.2974C89.0731 80.6439 88.8767 80.6052 88.7085 80.5277C88.5514 80.4389 88.3993 80.3113 88.2534 80.1449C87.2772 78.8356 86.4413 77.7201 85.7456 76.7992C85.05 75.8673 84.4389 75.0738 83.9116 74.4193C83.3843 73.7648 82.9073 73.2266 82.481 72.805C82.0546 72.3835 81.6226 72.0225 81.1851 71.723C80.8597 71.5122 80.5284 71.4066 80.1919 71.4066Z" stroke="white" stroke-width="0.0652146" mask="url(#path-1-outside-1_689_1047)"/>
<path fill-rule="evenodd" clip-rule="evenodd" d="M199.033 65.0326H0.0327148V0.0325928H199.033V65.0326ZM2.03271 2.03259V63.0326H197.033V2.03259H2.03271Z" stroke="white" stroke-width="0.0652146" mask="url(#path-1-outside-1_689_1047)"/>
<path d="M204.039 6.03259C203.485 6.03259 202.978 5.89978 202.518 5.63416C202.066 5.36072 201.703 4.99744 201.43 4.54431C201.165 4.09119 201.033 3.58728 201.033 3.03259C201.033 2.48572 201.165 1.98572 201.43 1.53259C201.703 1.07947 202.066 0.716187 202.518 0.442749C202.97 0.169312 203.477 0.0325928 204.039 0.0325928C204.452 0.0325928 204.838 0.110718 205.196 0.266968C205.563 0.423218 205.883 0.641968 206.156 0.923218C206.428 1.19666 206.643 1.51306 206.799 1.87244C206.955 2.23181 207.033 2.61853 207.033 3.03259C207.033 3.58728 206.896 4.09119 206.623 4.54431C206.35 4.99744 205.988 5.36072 205.536 5.63416C205.083 5.89978 204.584 6.03259 204.039 6.03259ZM204.039 5.52869C204.499 5.52869 204.916 5.41931 205.29 5.20056C205.664 4.974 205.961 4.67322 206.179 4.29822C206.405 3.91541 206.518 3.49353 206.518 3.03259C206.518 2.57166 206.405 2.15369 206.179 1.77869C205.961 1.40369 205.664 1.10681 205.29 0.888062C204.916 0.661499 204.499 0.548218 204.039 0.548218C203.571 0.548218 203.15 0.661499 202.775 0.888062C202.401 1.10681 202.101 1.40369 201.875 1.77869C201.656 2.15369 201.547 2.57166 201.547 3.03259C201.547 3.49353 201.656 3.91541 201.875 4.29822C202.101 4.67322 202.401 4.974 202.775 5.20056C203.15 5.41931 203.571 5.52869 204.039 5.52869ZM202.998 4.60291V1.43884H204.167C204.479 1.43884 204.736 1.52869 204.939 1.70837C205.142 1.88025 205.243 2.12244 205.243 2.43494C205.243 2.62244 205.196 2.80212 205.103 2.974C205.009 3.13806 204.857 3.26306 204.647 3.349L205.384 4.60291H204.799L204.132 3.41931H203.512V4.60291H202.998ZM203.512 2.974H204.167C204.339 2.974 204.475 2.92322 204.577 2.82166C204.678 2.72009 204.729 2.58728 204.729 2.42322C204.729 2.26697 204.678 2.14197 204.577 2.04822C204.475 1.95447 204.339 1.90759 204.167 1.90759H203.512V2.974Z" stroke="white" stroke-width="0.0652146" mask="url(#path-1-outside-1_689_1047)"/>
</svg>
